<?xml version="1.0" encoding="utf-8"?>
<!-- Generator: Adobe Illustrator 21.1.0, SVG Export Plug-In . SVG Version: 6.00 Build 0)  -->
<svg version="1.1" id="Слой_1" xmlns="http://www.w3.org/2000/svg" xmlns:xlink="http://www.w3.org/1999/xlink" x="0px" y="0px"
	 viewBox="0 0 100 125" style="enable-background:new 0 0 100 125;" xml:space="preserve">
<g>
	<path d="M41.3,39.2h-7.1c0,0-0.1,0-0.1,0.1v7.1c0,0,0,0.1,0.1,0.1h7.1c0,0,0.1,0,0.1-0.1L41.3,39.2C41.4,39.3,41.4,39.2,41.3,39.2z
		 M41.3,46.4h-7v-7h7V46.4z M23.2,70.8h1.7h1.7c0,0,0.1,0,0.1-0.1v-2.1c0,0,0-0.1-0.1-0.1h-1.7h-1.7c0,0-0.1,0-0.1,0.1L23.2,70.8
		C23.1,70.8,23.1,70.8,23.2,70.8z M24.9,68.8h0.5v1.9h-0.5h-0.5v-1.9H24.9z M26.5,70.7h-1v-1.9h1V70.7z M23.3,68.8h1v1.9h-1V68.8z
		 M23.2,76h1.7h1.7c0,0,0.1,0,0.1-0.1v-2.1c0,0,0-0.1-0.1-0.1h-1.7h-1.7c0,0-0.1,0-0.1,0.1L23.2,76C23.1,76,23.1,76,23.2,76z
		 M24.9,73.9h0.5v1.9h-0.5h-0.5v-1.9H24.9z M26.5,75.8h-1v-1.9h1V75.8z M23.3,73.9h1v1.9h-1V73.9z M23.2,64.5h1.7h1.7
		c0,0,0.1,0,0.1-0.1v-2.1c0,0,0-0.1-0.1-0.1h-1.7h-1.7c0,0-0.1,0-0.1,0.1L23.2,64.5C23.1,64.5,23.1,64.5,23.2,64.5z M24.9,62.5h0.5
		v1.9h-0.5h-0.5v-1.9C24.4,62.5,24.9,62.5,24.9,62.5z M26.5,64.4h-1v-1.9h1V64.4z M23.3,62.5h1v1.9h-1V62.5z M24.9,82.4h1.7
		c0,0,0.1,0,0.1-0.1v-4.2c0,0,0-0.1-0.1-0.1h-1.7h-1.7c0,0-0.1,0-0.1,0.1v4.2c0,0,0,0.1,0.1,0.1H24.9z M24.9,78.2h0.5v4h-0.5h-0.5
		v-4H24.9z M26.5,82.2h-1v-4h1V82.2z M23.3,78.2h1v4h-1V78.2z M24.3,60.7h1.1c0,0,0.1,0,0.1-0.1v-2.1c0,0,0-0.1-0.1-0.1h-1.1
		c0,0-0.1,0-0.1,0.1L24.3,60.7C24.2,60.6,24.3,60.7,24.3,60.7z M24.4,58.6h1v1.9h-1V58.6z M76.8,68.6h-1.7h-1.7c0,0-0.1,0-0.1,0.1
		v2.1c0,0,0,0.1,0.1,0.1h1.7h1.7c0,0,0.1,0,0.1-0.1L76.8,68.6C76.9,68.7,76.9,68.6,76.8,68.6z M75.1,70.7h-0.5v-1.9h0.5h0.5v1.9
		H75.1z M73.5,68.8h1v1.9h-1V68.8z M76.7,70.7h-1v-1.9h1V70.7z M73.4,76h1.7h1.7c0,0,0.1,0,0.1-0.1v-2.1c0,0,0-0.1-0.1-0.1h-1.7
		h-1.7c0,0-0.1,0-0.1,0.1L73.4,76C73.3,76,73.4,76,73.4,76z M75.1,73.9h0.5v1.9h-0.5h-0.5v-1.9H75.1z M76.7,75.8h-1v-1.9h1V75.8z
		 M73.5,73.9h1v1.9h-1V73.9z M73.4,64.5h1.7h1.7c0,0,0.1,0,0.1-0.1v-2.1c0,0,0-0.1-0.1-0.1h-1.7h-1.7c0,0-0.1,0-0.1,0.1L73.4,64.5
		C73.3,64.5,73.4,64.5,73.4,64.5z M75.1,62.5h0.5v1.9h-0.5h-0.5v-1.9C74.6,62.5,75.1,62.5,75.1,62.5z M76.7,64.4h-1v-1.9h1V64.4z
		 M73.5,62.5h1v1.9h-1V62.5z M76.8,78.1h-1.7h-1.7c0,0-0.1,0-0.1,0.1v4.2c0,0,0,0.1,0.1,0.1h1.7h1.7c0,0,0.1,0,0.1-0.1L76.8,78.1
		C76.9,78.1,76.9,78.1,76.8,78.1z M75.1,82.2h-0.5v-4h0.5h0.5v4H75.1z M73.5,78.2h1v4h-1V78.2z M76.7,82.2h-1v-4h1V82.2z M74.5,60.7
		h1.1c0,0,0.1,0,0.1-0.1v-2.1c0,0,0-0.1-0.1-0.1h-1.1c0,0-0.1,0-0.1,0.1L74.5,60.7C74.5,60.6,74.5,60.7,74.5,60.7z M74.6,58.6h1v1.9
		h-1V58.6z M37.8,45.4c1.4,0,2.5-1.1,2.5-2.5c0-1.4-1.1-2.5-2.5-2.5c-1.4,0-2.5,1.1-2.5,2.5S36.4,45.4,37.8,45.4z M37.8,40.5
		c1.3,0,2.4,1.1,2.4,2.4c0,1.3-1.1,2.4-2.4,2.4s-2.4-1.1-2.4-2.4C35.4,41.6,36.5,40.5,37.8,40.5z M37.4,43.4v-2.1c0,0,0-0.1,0.1-0.1
		s0.1,0,0.1,0.1v2.1h1.6c0,0,0.1,0,0.1,0.1s0,0.1-0.1,0.1L37.4,43.4C37.4,43.5,37.4,43.5,37.4,43.4z M37.4,30.8
		c0-0.1,0.2-0.3,0.3-0.3c0.2,0,0.4,0.1,0.5,0.3c0,0,0,0.1-0.1,0.1c0,0-0.1,0-0.1-0.1c0-0.1-0.2-0.2-0.3-0.2c-0.1,0-0.2,0.1-0.2,0.2
		C37.5,30.9,37.5,30.9,37.4,30.8C37.5,30.9,37.4,30.9,37.4,30.8C37.4,30.9,37.4,30.9,37.4,30.8z M35.6,30.8c0-0.1,0.2-0.3,0.3-0.3
		c0.2,0,0.4,0.1,0.5,0.3c0,0,0,0.1-0.1,0.1c0,0-0.1,0-0.1-0.1c0-0.1-0.2-0.2-0.3-0.2c-0.1,0-0.2,0.1-0.2,0.2
		C35.8,30.9,35.7,30.9,35.6,30.8C35.7,30.9,35.7,30.9,35.6,30.8C35.6,30.9,35.6,30.9,35.6,30.8z M36.6,32.8c0-0.1,0.2-0.3,0.3-0.3
		c0.2,0,0.4,0.1,0.5,0.3c0,0,0,0.1-0.1,0.1c0,0,0,0,0,0c0,0-0.1,0-0.1-0.1c0-0.1-0.2-0.2-0.3-0.2c-0.1,0-0.2,0.1-0.2,0.2
		C36.7,32.8,36.7,32.9,36.6,32.8C36.6,32.8,36.6,32.8,36.6,32.8z M34.8,32.8c0-0.1,0.2-0.3,0.3-0.3c0.2,0,0.4,0.1,0.5,0.3
		c0,0,0,0.1-0.1,0.1c0,0,0,0,0,0c0,0-0.1,0-0.1-0.1c0-0.1-0.1-0.1-0.1-0.2c-0.1,0-0.1,0-0.2,0c-0.1,0-0.2,0.1-0.2,0.2
		C35,32.8,34.9,32.9,34.8,32.8C34.8,32.8,34.8,32.8,34.8,32.8z M36.5,22.9c0-0.1,0.2-0.3,0.3-0.3c0.1,0,0.2,0,0.3,0.1
		c0.1,0.1,0.2,0.1,0.2,0.2c0,0,0,0.1-0.1,0.1c0,0,0,0,0,0c0,0-0.1,0-0.1-0.1c0-0.1-0.1-0.1-0.1-0.2c-0.1,0-0.1,0-0.2,0
		c-0.1,0-0.2,0.1-0.2,0.2C36.7,23,36.6,23,36.5,22.9C36.6,23,36.5,22.9,36.5,22.9z M38.2,22.9C38.2,22.9,38.1,23,38.2,22.9
		C38.1,23,38,23,38,22.9c0-0.1-0.2-0.2-0.3-0.2c-0.1,0-0.2,0.1-0.2,0.2c0,0,0,0.1-0.1,0.1c0,0,0,0,0,0c0,0-0.1,0-0.1-0.1
		c0-0.1,0.2-0.3,0.3-0.3c0.1,0,0.2,0,0.3,0.1C38.1,22.7,38.1,22.8,38.2,22.9z M38.1,20.5c0.1,0,0.2,0,0.3,0.1s0.2,0.1,0.2,0.2
		c0,0,0,0.1-0.1,0.1c0,0-0.1,0-0.1-0.1c0-0.1-0.1-0.1-0.1-0.2s-0.1,0-0.2,0c-0.1,0-0.2,0.1-0.2,0.2c0,0,0,0.1-0.1,0.1c0,0,0,0,0,0
		c0,0-0.1,0-0.1-0.1C37.8,20.6,38,20.5,38.1,20.5z M37,20.7c0-0.1,0.2-0.3,0.3-0.3c0.2,0,0.4,0.1,0.5,0.3c0,0,0,0.1-0.1,0.1
		c0,0,0,0,0,0c0,0-0.1,0-0.1-0.1c0-0.1-0.2-0.2-0.3-0.2c-0.1,0-0.2,0.1-0.2,0.2C37.1,20.8,37.1,20.8,37,20.7
		C37,20.8,37,20.8,37,20.7z M38.5,22.6c0.1,0,0.2,0,0.3,0.1c0.1,0.1,0.2,0.1,0.2,0.2c0,0,0,0.1-0.1,0.1c0,0,0,0,0,0
		c0,0-0.1,0-0.1-0.1c0-0.1-0.1-0.1-0.1-0.2c-0.1,0-0.1,0-0.2,0c-0.1,0-0.2,0.1-0.2,0.2c0,0,0,0.1-0.1,0.1c0,0-0.1,0-0.1-0.1
		C38.3,22.8,38.4,22.6,38.5,22.6z M37.4,18.7c0-0.1,0.2-0.3,0.3-0.3c0.2,0,0.4,0.1,0.5,0.3c0,0,0,0.1-0.1,0.1c0,0-0.1,0-0.1-0.1
		c0-0.1-0.2-0.2-0.3-0.2c-0.1,0-0.2,0.1-0.2,0.2C37.5,18.7,37.5,18.8,37.4,18.7C37.5,18.8,37.4,18.8,37.4,18.7
		C37.4,18.7,37.4,18.7,37.4,18.7z M39.2,30.8c0-0.1,0.2-0.3,0.3-0.3c0.2,0,0.4,0.1,0.5,0.3c0,0,0,0.1-0.1,0.1c0,0-0.1,0-0.1-0.1
		c0-0.1-0.2-0.2-0.3-0.2c-0.1,0-0.2,0.1-0.2,0.2C39.3,30.9,39.3,30.9,39.2,30.8C39.2,30.9,39.2,30.9,39.2,30.8
		C39.2,30.9,39.2,30.9,39.2,30.8z M38.2,32.8c0-0.1,0.2-0.3,0.3-0.3c0.2,0,0.4,0.1,0.5,0.3c0,0,0,0.1-0.1,0.1c0,0,0,0,0,0
		c0,0-0.1,0-0.1-0.1c0-0.1-0.2-0.2-0.3-0.2c-0.1,0-0.2,0.1-0.2,0.2C38.3,32.8,38.3,32.9,38.2,32.8C38.2,32.8,38.2,32.8,38.2,32.8z
		 M39.9,32.8c0-0.1,0.2-0.3,0.3-0.3c0.2,0,0.4,0.1,0.5,0.3c0,0,0,0.1-0.1,0.1c0,0,0,0,0,0c0,0-0.1,0-0.1-0.1c0-0.1-0.1-0.1-0.1-0.2
		s-0.1,0-0.2,0c-0.1,0-0.2,0.1-0.2,0.2C40.1,32.8,40,32.9,39.9,32.8C40,32.8,39.9,32.8,39.9,32.8z M37.8,46.3c1.9,0,3.4-1.5,3.4-3.4
		s-1.5-3.4-3.4-3.4s-3.4,1.5-3.4,3.4S35.9,46.3,37.8,46.3z M37.8,40c1.6,0,2.9,1.3,2.9,2.9s-1.3,2.9-2.9,2.9s-2.9-1.3-2.9-2.9
		C34.9,41.3,36.2,40,37.8,40z M50,5C25.2,5,5,25.2,5,50s20.2,45,45,45s45-20.2,45-45S74.8,5,50,5z M93.2,54.7l-2.2-5.2
		c0.1-0.1,0.2-0.1,0.3-0.2l2,3.1C93.4,53.2,93.3,54,93.2,54.7z M93,56.2c-0.5-1.8-1-3.5-1.5-5.2l1.7,4.1
		C93.1,55.4,93.1,55.8,93,56.2z M87.4,72.1c-0.2-0.1-0.4-0.3-0.6-0.4c1.4-6.7,2.5-13.6,3.1-20.4v16C89.2,69,88.3,70.6,87.4,72.1z
		 M84.1,76.9l0.7-3.5c0.3,0.3,0.6,0.5,0.9,0.8c-0.1,0.3-0.1,0.6-0.2,0.9C85.1,75.7,84.6,76.3,84.1,76.9z M75.6,85.1h-4.4v-7.6H79
		v4.9C77.9,83.4,76.8,84.3,75.6,85.1z M74.4,86H50H25.6c-0.2-0.1-0.3-0.2-0.5-0.3H50h24.9C74.7,85.7,74.6,85.9,74.4,86z M12.8,72.6
		c0.3-0.2,0.7-0.4,1-0.7v2c0,0-0.1,0.1-0.1,0.1C13.4,73.5,13.1,73.1,12.8,72.6z M14,73.7v-1.9c1.1-0.8,2.2-1.6,3.3-2.4v1.3
		C16.2,71.7,15.1,72.8,14,73.7z M17.3,71.4v7.2c-1.2-1.3-2.2-2.7-3.2-4.2C15.1,73.5,16.2,72.5,17.3,71.4z M17.4,69.3
		c1.1-0.8,2.1-1.7,3.1-2.5v0.2c-1,1.2-2,2.4-3.1,3.6V69.3z M21.9,54.9l0.8,2.9h-1.5L21.9,54.9z M24.9,52l1.6,5.8h-3.2L24.9,52z
		 M27.9,54.9l0.8,2.9h-1.5L27.9,54.9z M43.1,37.5v10.7h-1.8v-0.9H42c0.1,0,0.3-0.1,0.3-0.3v-8.4c0-0.1-0.1-0.3-0.3-0.3h-8.4
		c-0.1,0-0.3,0.1-0.3,0.3v8.4c0,0.1,0.1,0.3,0.3,0.3h0.6v0.9h-1.8V37.5H43.1z M37.8,16.4c0.4,2.6,1,5.1,1.9,7.5h-3.7
		C36.8,21.5,37.4,19,37.8,16.4z M37.8,28.8h-0.4v-3.5h0.8v3.5C38.2,28.8,37.8,28.8,37.8,28.8z M39.7,25.1h-3.9v-0.7h3.9V25.1z
		 M35.8,25.3h0.4v3.5h-0.4V25.3z M36.3,25.3h0.8v3.5h-0.8V25.3z M38.3,25.3h0.8v3.5h-0.8V25.3z M39.3,25.3h0.4v3.5h-0.4V25.3z
		 M35.7,29.4h2.1h2.1l1.7,4.1H34L35.7,29.4z M41.3,37v-2.2h0.4V37H41.3z M33.8,34h7.8v0.7h-7.8V34z M35.2,34.8V37h-0.8v-2.2H35.2z
		 M35.3,34.8h0.8V37h-0.8V34.8z M36.3,34.8h0.8V37h-0.8V34.8z M37.3,34.8h0.8V37h-0.8V34.8z M38.3,34.8h0.8V37h-0.8V34.8z
		 M39.3,34.8h0.8V37h-0.8V34.8z M40.3,34.8h0.8V37h-0.8V34.8z M33.8,34.8h0.4V37h-0.4V34.8z M50,61.5l1.4,0.6v0.6v2.6H50h-1.4v-2.6
		v-0.6L50,61.5z M52.8,60.9c0.2,0.5,0.4,1.1,0.6,1.6H52V62L52.8,60.9z M49.4,55.3c0,0.5-0.4,0.9-0.9,0.9s-0.9-0.4-0.9-0.9
		s0.4-0.9,0.9-0.9C48.9,54.4,49.4,54.8,49.4,55.3z M49.3,54.7l1.6-1.3c0.2,1,0.4,1.9,0.6,2.9l-2-0.6c0-0.1,0-0.2,0-0.3
		C49.5,55.1,49.4,54.9,49.3,54.7z M48.5,47.1c0,0.5-0.4,0.9-0.9,0.9s-0.9-0.4-0.9-0.9s0.4-0.9,0.9-0.9S48.5,46.6,48.5,47.1z
		 M48.6,46.6l1.8-1c0,1,0,2,0,2.9l-1.8-1c0.1-0.1,0.1-0.3,0.1-0.5S48.7,46.8,48.6,46.6z M49.4,38.8c0,0.5-0.4,0.9-0.9,0.9
		s-0.9-0.4-0.9-0.9s0.4-0.9,0.9-0.9C48.9,37.9,49.4,38.3,49.4,38.8z M49.5,38.8c0-0.1,0-0.2,0-0.3l2-0.6c-0.2,1-0.4,1.9-0.6,2.9
		l-1.6-1.3C49.4,39.3,49.5,39.1,49.5,38.8z M51.8,30.9c0,0.5-0.4,0.9-0.9,0.9s-0.9-0.4-0.9-0.9s0.4-0.9,0.9-0.9S51.8,30.4,51.8,30.9
		z M51.9,30.9C51.9,30.9,51.9,30.8,51.9,30.9l2-0.3c-0.4,0.9-0.8,1.8-1.1,2.7l-1.3-1.6C51.8,31.5,51.9,31.2,51.9,30.9z M54.8,24.5
		c-0.5,0-0.9-0.4-0.9-0.9s0.4-0.9,0.9-0.9s0.9,0.4,0.9,0.9S55.3,24.5,54.8,24.5z M55.8,23.7l2,0.2c-0.6,0.8-1.1,1.6-1.6,2.4
		l-0.9-1.8C55.6,24.3,55.8,24,55.8,23.7z M60,18.1c-0.5,0-0.9-0.4-0.9-0.9s0.4-0.9,0.9-0.9s0.9,0.4,0.9,0.9S60.5,18.1,60,18.1z
		 M61,17.5l2,0.6c-0.7,0.7-1.4,1.4-2.1,2.1l-0.6-2C60.7,18,60.9,17.8,61,17.5z M66.4,12.8c-0.5,0-0.9-0.4-0.9-0.9
		c0-0.5,0.4-0.9,0.9-0.9c0.5,0,0.9,0.4,0.9,0.9C67.4,12.4,67,12.8,66.4,12.8z M67.4,12.4l1.8,0.9c-0.8,0.5-1.7,1.1-2.4,1.6l-0.2-2.1
		C66.9,12.9,67.2,12.7,67.4,12.4z M74.3,14c-1.6,0.7-3.1,1.6-4.5,2.5l-0.2-2.8c0.7-0.4,1.5-0.9,2.2-1.3C72.7,12.9,73.5,13.4,74.3,14
		z M77,15.9l11.9,28.7c-0.1,0.1-0.2,0.1-0.3,0.2L70,17c1.5-1,3.2-1.9,4.9-2.7C75.6,14.8,76.3,15.4,77,15.9z M92.9,42.6l-1.5,2.2
		c-0.1-0.1-0.2-0.1-0.3-0.2l1.5-3.6C92.7,41.6,92.8,42.1,92.9,42.6z M93.1,43.9l-1.3,1.3c-0.1-0.1-0.2-0.2-0.3-0.2l1.4-2.1
		C92.9,43.2,93,43.5,93.1,43.9z M93.2,44.8l-1,0.7c-0.1-0.1-0.2-0.2-0.2-0.3l1.2-1.2C93.1,44.3,93.1,44.6,93.2,44.8z M93.3,45.6
		L92.4,46c-0.1-0.1-0.1-0.2-0.2-0.3l1-0.7C93.2,45.2,93.3,45.4,93.3,45.6z M81.5,67.7L88.4,51c-1.9,6.1-3.4,12.3-4.6,18.5
		C83,68.9,82.2,68.3,81.5,67.7z M50,85.1h-6.9V65.9H50h5.1c0.3,0.6,0.7,1.2,1,1.8l-1,1.9c-0.1-0.1-0.3-0.1-0.4-0.1
		c-0.6,0-1.1,0.5-1.1,1.1c0,0.6,0.5,1.1,1.1,1.1c0.6,0,1.1-0.5,1.1-1.1c0,0,0,0,0,0l2.1-0.2c0.9,1.2,1.8,2.4,2.8,3.5L60.2,76
		c-0.1,0-0.1,0-0.2,0C59.4,76,59,76.4,59,77s0.5,1.1,1.1,1.1c0.6,0,1.1-0.5,1.1-1.1c0-0.1,0-0.1,0-0.2l2.1-0.6c1.1,1,2.3,2,3.5,2.8
		l-0.2,2.1c0,0,0,0,0,0c-0.6,0-1.1,0.5-1.1,1.1c0,0.6,0.5,1.1,1.1,1.1c0.6,0,1.1-0.5,1.1-1.1c0-0.1,0-0.3-0.1-0.4l1.9-1
		c0.4,0.3,0.9,0.5,1.4,0.8v3.4L50,85.1L50,85.1z M41.3,85.1v-3h1.3v3H41.3z M29.3,85.1V65.9h3.1v19.2H29.3z M35.2,49.6v6.6h-0.8
		v-6.6H35.2z M36.2,49.6v6.6h-0.8v-6.6H36.2z M37.2,49.6v6.6h-0.8v-6.6H37.2z M38.2,49.6v6.6h-0.8v-6.6H38.2z M39.2,49.6v6.6h-0.8
		v-6.6H39.2z M40.2,49.6v6.6h-0.8v-6.6H40.2z M41.2,49.6v6.6h-0.8v-6.6H41.2z M42.6,49.6v6.6h-1.3v-6.6H42.6z M34.2,56.2h-1.3v-6.6
		h1.3V56.2z M32.9,56.8h9.7v0.9h-9.7V56.8z M40.3,62.5v-4.3h0.8v4.3H40.3z M48,65.4h-8.4v-0.5H48V65.4z M32.9,81.6v-0.9h9.7v0.9
		H32.9z M32.9,75.1v-2.3h9.7v2.3H32.9z M35.2,66.2v6h-0.8v-6H35.2z M36.2,66.2v6h-0.8v-6H36.2z M37.2,66.2v6h-0.8v-6H37.2z
		 M38.2,66.2v6h-0.8v-6H38.2z M39.2,66.2v6h-0.8v-6H39.2z M40.2,66.2v6h-0.8v-6H40.2z M40.3,72.2v-6h0.8v6H40.3z M34.2,72.2h-1.3v-6
		h1.3V72.2z M32.9,75.6h1.3v4.6h-1.3V75.6z M34.4,75.6h0.8v4.6h-0.8V75.6z M35.3,75.6h0.8v4.6h-0.8V75.6z M36.3,75.6h0.8v4.6h-0.8
		V75.6z M37.3,75.6h0.8v4.6h-0.8V75.6z M38.3,75.6h0.8v4.6h-0.8V75.6z M39.3,75.6h0.8v4.6h-0.8V75.6z M40.3,75.6h0.8v4.6h-0.8V75.6z
		 M41.3,75.6h1.3v4.6h-1.3V75.6z M42.6,72.2h-1.3v-6h1.3V72.2z M39.3,62.5v-4.3h0.8v4.3H39.3z M39.2,58.2v4.3h-0.8v-4.3H39.2z
		 M35.2,58.2v4.3h-0.8v-4.3H35.2z M35.3,58.2h0.8v4.3h-0.8V58.2z M36.3,58.2h0.8v4.3h-0.8V58.2z M37.3,58.2h0.8v4.3h-0.8V58.2z
		 M39.4,63v2.4h-1.6V63C37.9,63,39.4,63,39.4,63z M37.7,65.4h-8.4v-0.5h8.4V65.4z M28.8,66.7H21v-0.3h7.7V66.7z M28.8,71.9H21v-0.3
		h7.7V71.9z M28.8,72.4v3.8H21v-3.8H28.8z M28.8,65.9H21v-3.8h7.7V65.9z M28.8,61.3v0.3H21v-0.3H28.8z M28.8,60.8h-1.7v-2.4h1.7
		V60.8z M26.6,60.8h-3.3v-2.4h3.3V60.8z M22.7,60.8H21v-2.4h1.7V60.8z M28.8,67.3V71H21v-3.8H28.8z M21,76.7h7.7V77H21V76.7z
		 M32.9,82.1h1.3v3h-1.3V82.1z M34.4,82.1h0.8v3h-0.8V82.1z M35.3,82.1h0.8v3h-0.8V82.1z M36.3,82.1h0.8v3h-0.8V82.1z M37.3,82.1
		h0.8v3h-0.8V82.1z M38.3,82.1h0.8v3h-0.8V82.1z M39.3,82.1h0.8v3h-0.8V82.1z M40.3,82.1h0.8v3h-0.8V82.1z M54.1,54.3L52,56.1
		c-0.2-1-0.4-1.9-0.6-2.9l2.7,0.9C54,54.2,54.1,54.2,54.1,54.3z M50.9,45.6l2.4,1.4c0,0,0,0.1,0,0.1l-2.4,1.4
		C50.9,47.6,50.9,46.6,50.9,45.6z M54,40l-2.7,0.9c0.2-1,0.4-1.9,0.6-2.9l2.1,1.9C54.1,39.9,54.1,40,54,40z M56.1,33.1l-2.8,0.4
		c0.3-0.9,0.7-1.8,1.1-2.7l1.7,2.2C56.2,33.1,56.1,33.1,56.1,33.1z M59.5,26.8l-2.8-0.2c0.5-0.8,1.1-1.7,1.6-2.5l1.2,2.5
		C59.5,26.7,59.5,26.8,59.5,26.8z M69.6,16.7L67,15.4c0.8-0.6,1.6-1.1,2.4-1.6l0.2,2.8C69.6,16.6,69.6,16.6,69.6,16.7z M90,45
		c0.1,0,0.2,0,0.3,0L90,46.3V45z M67.4,82.3c0,0.5-0.4,0.9-0.9,0.9c-0.5,0-0.9-0.4-0.9-0.9c0-0.5,0.4-0.9,0.9-0.9
		C67,81.4,67.4,81.8,67.4,82.3z M66.6,81.2l0.2-2.1c0.8,0.6,1.6,1.1,2.4,1.6l-1.8,0.9C67.2,81.5,66.9,81.3,66.6,81.2z M60.9,77
		c0,0.5-0.4,0.9-0.9,0.9s-0.9-0.4-0.9-0.9c0-0.5,0.4-0.9,0.9-0.9S60.9,76.5,60.9,77z M60.4,76l0.6-2c0.7,0.7,1.4,1.4,2.1,2.1l-2,0.6
		C60.9,76.4,60.7,76.1,60.4,76z M55.7,70.6c0,0.5-0.4,0.9-0.9,0.9s-0.9-0.4-0.9-0.9c0-0.5,0.4-0.9,0.9-0.9S55.7,70.1,55.7,70.6z
		 M55.3,69.7l0.9-1.8c0.5,0.8,1.1,1.7,1.6,2.4l-2.1,0.2C55.8,70.1,55.6,69.9,55.3,69.7z M56.4,61.8c0.1,0.2,0.2,0.5,0.3,0.7h-1.4
		l0.9-1.2C56.3,61.5,56.4,61.6,56.4,61.8z M57.3,62.5c-0.1-0.3-0.3-0.6-0.4-0.9c-0.1-0.2-0.2-0.4-0.2-0.6l14.9-6.2L70.7,58
		c0,0,0,0,0,0c0,0,0,0,0,0v1.8l-3.9,2.6L57.3,62.5L57.3,62.5z M89.4,46.6l-1.1-0.8c0.1-0.1,0.1-0.1,0.2-0.2L89.4,46.6z M88.4,48.5
		c-0.1-0.1-0.1-0.1-0.2-0.2l1.1-0.8L88.4,48.5z M79,65.9h-7.7v-3.8H79V65.9z M69.7,77.5l-0.2,2.8c-0.8-0.5-1.7-1.1-2.4-1.6
		L69.7,77.5C69.6,77.5,69.7,77.5,69.7,77.5z M60,67.2l2-1.3h8.7v0.4l-6.3,6.3C62.8,70.9,61.3,69.1,60,67.2z M59.6,67.5L58.3,70
		c-0.6-0.8-1.1-1.6-1.6-2.4l2.8-0.2C59.5,67.4,59.5,67.4,59.6,67.5z M70.7,63v1.7h-8.4V63H70.7z M72.1,54.9l0.8,2.9h-1.5L72.1,54.9z
		 M87.7,48.5l-9.1,6.1l-0.2-0.8v-1.7c0-0.1,0-0.1-0.1-0.2l9.2-3.8C87.6,48.3,87.7,48.4,87.7,48.5z M88,48l1.3-0.5l-1.1,0.8
		C88.1,48.1,88.1,48,88,48z M71.2,58.4h1.7v2.4h-1.7V58.4z M71.2,61.3H79v0.3h-7.7V61.3z M77.3,58.4H79v2.4h-1.7V58.4z M77.4,57.8
		l0.8-2.9l0.8,2.9H77.4z M77.3,56h-0.5l0.6-0.4L77.3,56z M77.9,53.8l-0.4,1.5l-0.8,0.5L75.9,53l2-0.8L77.9,53.8L77.9,53.8z
		 M77.2,56.5L77,57.1l-0.2-0.6H77.2z M76.8,60.8h-3.3v-2.4h3.3V60.8z M73,56.5h0.3l-0.2,0.6L73,56.5z M70.7,62.5h-3.6l3.6-2.4V62.5z
		 M62.3,64.9h8.4v0.5h-8.4C62.3,65.4,62.3,64.9,62.3,64.9z M64.1,73l-0.7,2.7c-0.7-0.7-1.4-1.4-2.1-2.1L64.1,73
		C64.1,73,64.1,73,64.1,73z M70.7,66.4v9.3L69.9,77c-1.9-1.3-3.7-2.8-5.4-4.4L70.7,66.4z M78.6,54.7l9.2-6.1
		c0.1,0.1,0.2,0.2,0.2,0.3l-8.7,8.7L78.6,54.7z M89.3,46.7L88,46.2c0-0.1,0.1-0.2,0.1-0.2L89.3,46.7z M89.2,46.9l-1.3-0.3
		c0-0.1,0-0.2,0.1-0.3L89.2,46.9z M89.2,47h-1.4c0-0.1,0-0.2,0-0.3L89.2,47z M89.2,47.2l-1.3,0.3c0-0.1,0-0.2,0-0.3H89.2z
		 M89.2,47.3L88,47.8c0-0.1-0.1-0.2-0.1-0.3L89.2,47.3z M87.5,48l-9.3,3.9c0,0,0,0,0,0c-0.1,0-0.1,0-0.2,0.1l-2.1,0.9L75.4,51v-0.9
		l12-2.4C87.4,47.8,87.4,47.9,87.5,48z M75.1,52l1.6,5.8h-3.2L75.1,52z M73.5,56h-0.6l-0.4-1.6l1.6-0.7L73.5,56z M60.6,63h1.6v2.4
		h-1.6V63z M61.7,65.9l-1.8,1.2c-0.3-0.4-0.5-0.8-0.8-1.2H61.7z M58.5,65.9c0.3,0.5,0.6,0.9,0.9,1.3l-2.8,0.2
		c-0.3-0.5-0.6-1-0.9-1.5L58.5,65.9L58.5,65.9z M59.7,67.6c1.3,1.9,2.7,3.6,4.3,5.2l-2.7,0.7c-1-1.1-1.9-2.2-2.8-3.4L59.7,67.6z
		 M64.3,73.1c1.6,1.6,3.3,3,5.2,4.3l-2.5,1.2c-1.2-0.9-2.3-1.8-3.4-2.8L64.3,73.1z M69.8,77.6c0.3,0.2,0.6,0.4,0.9,0.6v2.9
		c-0.4-0.2-0.7-0.4-1.1-0.6L69.8,77.6z M70,77.1l0.7-1.1v1.6C70.5,77.4,70.2,77.3,70,77.1z M71.2,71.6H79v0.3h-7.7V71.6z M71.2,71
		v-3.8H79V71H71.2z M71.2,66.7v-0.3H79v0.3H71.2z M79.5,58.1C79.5,58.1,79.5,58.1,79.5,58.1C79.5,58.1,79.5,58.1,79.5,58.1l-0.1-0.4
		l8.7-8.7c0.1,0.1,0.2,0.2,0.3,0.2l-8.9,13.4L79.5,58.1L79.5,58.1z M88.5,48.6l1-1l-0.8,1.1C88.7,48.8,88.6,48.7,88.5,48.6z
		 M89.3,48.1c-0.1,0.3-0.2,0.6-0.3,0.9c-0.1,0-0.1-0.1-0.2-0.1L89.3,48.1z M92,47.6c0,0.1,0,0.2-0.1,0.3l-1.3-0.5L92,47.6z
		 M90.7,47.2h1.4c0,0.1,0,0.2,0,0.3L90.7,47.2z M92.6,47.7l0.9,0.2c0,0.2,0,0.4,0,0.6l-1-0.4C92.5,47.9,92.5,47.8,92.6,47.7z
		 M92.6,47.5c0-0.1,0-0.2,0-0.4h0.8c0,0.2,0,0.4,0,0.5L92.6,47.5z M92.6,47c0-0.1,0-0.2,0-0.4l0.8-0.1c0,0.2,0,0.3,0,0.5H92.6z
		 M92.1,47h-1.4l1.3-0.3C92.1,46.8,92.1,46.9,92.1,47z M90.7,46.9l1.3-0.5c0,0.1,0.1,0.2,0.1,0.3L90.7,46.9z M90.6,46.7l1.1-0.8
		c0,0.1,0.1,0.2,0.1,0.2L90.6,46.7z M90.6,46.6l1-1c0.1,0.1,0.1,0.1,0.2,0.2L90.6,46.6z M90.5,46.5l0.8-1.1c0.1,0.1,0.1,0.1,0.2,0.2
		L90.5,46.5z M90.3,46.4l0.5-1.3c0.1,0,0.2,0.1,0.2,0.1L90.3,46.4z M90.2,46.3l0.3-1.3c0.1,0,0.2,0,0.3,0.1L90.2,46.3z M88.5,45.5
		c0.1-0.1,0.1-0.1,0.2-0.2l0.8,1.1L88.5,45.5z M88.1,45.2L64.5,21.5c1.6-1.6,3.4-3.1,5.4-4.4l18.6,27.8C88.3,45,88.2,45.1,88.1,45.2
		z M64,21.2l-2.7-0.7c0.7-0.7,1.4-1.4,2.1-2.1l0.7,2.7C64.1,21.2,64.1,21.2,64,21.2z M64.4,21.6L88,45.3c-0.1,0.1-0.2,0.2-0.2,0.3
		L60,27C61.3,25,62.8,23.2,64.4,21.6z M87.7,45.7c-0.1,0.1-0.1,0.2-0.2,0.3L56.7,33.2c0.9-2.2,2-4.2,3.3-6.1L87.7,45.7z M56.6,33.3
		l30.9,12.8c0,0.1-0.1,0.2-0.1,0.4L54.6,40c0.4-2,1-4.1,1.8-6C56.4,33.7,56.5,33.5,56.6,33.3z M87.4,46.6c0,0.1,0,0.2,0,0.4H53.9
		c0-2.3,0.2-4.6,0.7-6.9L87.4,46.6z M53.9,47.2h33.4c0,0.1,0,0.2,0,0.4l-12,2.4v-1.4c0-0.1-0.1-0.3-0.3-0.3s-0.3,0.1-0.3,0.3V50
		l-20.3,4C54.1,51.8,53.9,49.5,53.9,47.2z M74.8,50.2V51l-0.7,2.6l-1.7,0.7l-0.1-0.4v-1.7c0-0.1-0.1-0.3-0.3-0.3s-0.3,0.1-0.3,0.3
		v1.7l-0.2,0.8l-15,6.2c-0.9-2.2-1.6-4.4-2-6.6L74.8,50.2z M56.2,61.1l-1,1.3H54c-0.3-0.6-0.5-1.2-0.7-1.8l2.8,0.4
		C56.1,61.1,56.2,61.1,56.2,61.1z M60.4,63v1.7H52V63H60.4z M52,64.9h8.4v0.5H52V64.9z M71.2,76.7H79V77h-7.7V76.7z M79,76.2h-7.7
		v-3.8H79V76.2z M79.5,62.9l9.1-13.6c0.1,0.1,0.2,0.1,0.3,0.2l-7.5,18.1c-0.6-0.5-1.3-1.1-1.9-1.6C79.5,66,79.5,62.9,79.5,62.9z
		 M89.3,49.9l-4.1,20.7c-0.3-0.2-0.6-0.5-1-0.7C85.5,63.1,87.2,56.5,89.3,49.9z M85.1,71.2l-0.3,1.5c-0.3-0.3-0.6-0.6-0.9-0.9
		c0.1-0.4,0.2-0.9,0.3-1.3C84.5,70.7,84.8,70.9,85.1,71.2z M85.2,71.3c0.3,0.2,0.5,0.4,0.8,0.5v1.1c-0.1,0.2-0.1,0.5-0.2,0.7
		c-0.3-0.3-0.6-0.5-0.9-0.8L85.2,71.3z M86.2,71.9C86.2,71.9,86.2,71.9,86.2,71.9c0,0.1,0,0.2,0,0.2V71.9z M85.3,70.7l4.1-20.8
		c-0.6,7.2-1.7,14.4-3.2,21.5C86,71.2,85.7,70.9,85.3,70.7z M90.6,48.2l0.5,0.7c-0.1,0-0.1,0.1-0.2,0.1
		C90.8,48.7,90.7,48.4,90.6,48.2z M90.5,47.7l1,1c-0.1,0.1-0.1,0.1-0.2,0.2L90.5,47.7z M90.6,47.6l1.1,0.8c-0.1,0.1-0.1,0.1-0.2,0.2
		L90.6,47.6z M90.6,47.4l1.3,0.5c0,0.1-0.1,0.2-0.1,0.2L90.6,47.4z M92.4,48.2l1.1,0.4c0,0.2,0,0.5,0,0.7l-1.3-0.8
		C92.3,48.4,92.3,48.3,92.4,48.2z M93.3,46.3l-0.8,0.2c0-0.1-0.1-0.2-0.1-0.4l0.8-0.3C93.3,46,93.3,46.2,93.3,46.3z M90.9,44.6
		c-0.1,0-0.2-0.1-0.4-0.1l1.3-6.4c0.2,0.9,0.5,1.8,0.7,2.7L90.9,44.6z M90.4,44.5c-0.1,0-0.2,0-0.4,0V33c0.7,1.5,1.2,3.1,1.7,4.8
		L90.4,44.5z M89.9,44.4c-0.1,0-0.2,0-0.4,0l-3.8-19.3c1.6,2.3,3,4.9,4.2,7.5C89.9,32.7,89.9,44.4,89.9,44.4z M89.9,45v1.4L89.6,45
		C89.7,45,89.8,45,89.9,45z M89.7,46.3l-0.5-1.3c0.1,0,0.2-0.1,0.3-0.1L89.7,46.3z M89.6,46.4l-0.8-1.1c0.1,0,0.2-0.1,0.2-0.1
		L89.6,46.4z M66.9,15.5l2.5,1.2c-1.9,1.3-3.6,2.7-5.2,4.2l-0.7-2.7C64.6,17.3,65.7,16.4,66.9,15.5z M61.2,20.6l2.7,0.7
		c-1.6,1.6-3,3.3-4.2,5.2L58.4,24C59.3,22.8,60.2,21.7,61.2,20.6z M56.6,26.8l2.8,0.2c-1.2,1.9-2.3,3.8-3.1,5.9l-1.7-2.2
		C55.1,29.3,55.8,28,56.6,26.8z M53.3,33.7l2.8-0.4c-0.1,0.1-0.1,0.3-0.2,0.4c-0.8,2-1.3,4-1.8,6L52,37.9
		C52.3,36.4,52.8,35,53.3,33.7z M51.3,41.1l2.7-0.9c-0.4,2.2-0.6,4.4-0.7,6.7l-2.4-1.4C51,44,51.1,42.5,51.3,41.1z M53.3,47.3
		c0,2.2,0.2,4.5,0.7,6.7l-2.7-0.9c-0.2-1.5-0.4-2.9-0.4-4.4L53.3,47.3z M54.1,54.5c0.5,2.2,1.1,4.3,2,6.4l-2.8-0.4
		c-0.5-1.4-0.9-2.8-1.3-4.2L54.1,54.5z M48,64.7h-8.4V63H48V64.7z M41.3,62.5v-4.3h1.3v4.3H41.3z M33.8,46.8V39h7.8v7.8H33.8z
		 M35.2,47.3v0.9h-0.8v-0.9H35.2z M35.3,47.3h0.8v0.9h-0.8V47.3z M36.3,47.3h0.8v0.9h-0.8V47.3z M37.3,47.3h0.8v0.9h-0.8V47.3z
		 M38.3,47.3h0.8v0.9h-0.8V47.3z M39.3,47.3h0.8v0.9h-0.8V47.3z M40.3,47.3h0.8v0.9h-0.8V47.3z M42.6,48.8v0.7h-9.7v-0.7H42.6z
		 M32.9,58.2h1.3v4.3h-1.3V58.2z M37.7,63v1.7h-8.4V63H37.7z M26.8,57.1l-0.2-0.6H27L26.8,57.1z M23,57.1l-0.2-0.6h0.3L23,57.1z
		 M21,77.5h7.7v7.6h-4.4c-1.2-0.8-2.3-1.8-3.4-2.7L21,77.5L21,77.5z M30.9,89.1c-1.6-0.8-3.1-1.6-4.5-2.6h4.5V89.1z M31.4,88.7
		c0.3,0,0.6-0.1,1-0.1v1.2c-0.3-0.1-0.6-0.3-1-0.4C31.4,89.3,31.4,88.7,31.4,88.7z M32.9,88.5c0.4-0.1,0.8-0.1,1.3-0.2v2.2
		c-0.4-0.2-0.9-0.3-1.3-0.5V88.5z M34.4,88.3c0.3,0,0.6-0.1,0.8-0.1v2.7c-0.3-0.1-0.6-0.2-0.8-0.3V88.3z M35.3,88.2
		c0.3,0,0.6-0.1,0.8-0.1v3.2c-0.3-0.1-0.6-0.2-0.8-0.3V88.2z M36.3,88.1c0.3,0,0.6,0,0.8-0.1v3.6c-0.3-0.1-0.6-0.2-0.8-0.3V88.1z
		 M37.3,88c0.3,0,0.6-0.1,0.8-0.1v3.9c-0.3-0.1-0.6-0.2-0.8-0.2V88z M38.3,87.9c0.3,0,0.6-0.1,0.8-0.1v4.3c-0.3-0.1-0.6-0.2-0.8-0.2
		V87.9z M39.3,87.8c0.3,0,0.6-0.1,0.8-0.1v4.6c-0.3-0.1-0.6-0.1-0.8-0.2V87.8z M40.3,87.7c0.3,0,0.6,0,0.8-0.1v4.9
		c-0.3-0.1-0.6-0.1-0.8-0.2V87.7z M41.3,87.6c0.4,0,0.8,0,1.3-0.1v5.3c-0.4-0.1-0.9-0.1-1.3-0.2V87.6z M43,87C42.9,87,42.9,87,43,87
		c-0.1,0-0.2,0-0.2,0c-3.4,0.2-6.7,0.5-10.1,0.9c0,0,0,0,0,0c0,0-0.1,0-0.1,0c-0.4,0-0.7,0.1-1.1,0.1v-1.6H50h18.6v1.6
		C60.1,86.9,51.5,86.6,43,87z M69.1,86.5h4.5c-1.4,0.9-3,1.8-4.5,2.6V86.5z M79.5,67.7c0.4,0.5,0.8,1,1.2,1.5l-1.2,2.9V67.7z
		 M79.5,66.9v-0.2c0.5,0.5,1.1,1,1.7,1.4l-0.2,0.5C80.5,68.1,80,67.5,79.5,66.9z M81.3,68.2c0.4,0.3,0.9,0.7,1.3,1v1.2
		c-0.5-0.5-1-1.1-1.5-1.7L81.3,68.2z M82.7,69.4c0.3,0.2,0.6,0.5,0.9,0.7c-0.1,0.4-0.2,0.8-0.2,1.2c-0.2-0.2-0.5-0.5-0.7-0.7
		L82.7,69.4L82.7,69.4z M83.3,72c-0.2,1.1-0.4,2.3-0.6,3.4v-3.9C82.9,71.6,83.1,71.8,83.3,72z M83.8,72.4c0.3,0.3,0.6,0.6,0.9,0.9
		l-0.8,3.9c-0.4,0.4-0.7,0.9-1.1,1.3C83.1,76.5,83.4,74.4,83.8,72.4z M86.3,73.9c0.1-0.5,0.2-1.1,0.4-1.6c0.2,0.1,0.3,0.2,0.5,0.3
		C86.9,73,86.6,73.5,86.3,73.9z M90,51.3c0.4,3.9,0.9,7.8,1.5,11.6c-0.4,1.4-0.9,2.7-1.5,4V51.3z M90.5,50l1.9,9.7
		c-0.2,0.7-0.3,1.4-0.5,2.1C91.3,57.8,90.8,53.9,90.5,50z M90.6,49.8c0.8,2.5,1.6,5.1,2.2,7.6c-0.1,0.6-0.2,1.2-0.4,1.8L90.6,49.8z
		 M91.5,49.2c0.1-0.1,0.2-0.2,0.3-0.2l1.7,1.7c0,0.5,0,1,0,1.4L91.5,49.2z M91.9,48.9c0.1-0.1,0.2-0.2,0.2-0.3l1.3,0.9
		c0,0.2,0,0.3,0,0.5c0,0.2,0,0.3,0,0.5L91.9,48.9z M85.5,24.9l3.9,19.6c-0.1,0-0.2,0.1-0.4,0.1L77.2,16.1
		C80.4,18.6,83.1,21.6,85.5,24.9z M50,6.5c7.8,0,15,2,21.3,5.6c-0.7,0.4-1.3,0.7-2,1.1l-1.9-1c0.1-0.1,0.1-0.3,0.1-0.4
		c0-0.6-0.5-1.1-1.1-1.1c-0.6,0-1.1,0.5-1.1,1.1s0.5,1.1,1.1,1.1c0,0,0,0,0,0l0.2,2.1c-1.2,0.9-2.4,1.8-3.5,2.8l-2.1-0.6
		c0-0.1,0-0.1,0-0.2c0-0.6-0.5-1.1-1.1-1.1c-0.6,0-1.1,0.5-1.1,1.1s0.5,1.1,1.1,1.1c0.1,0,0.1,0,0.2,0l0.6,2.1c-1,1.1-2,2.3-2.9,3.5
		l-2.1-0.2c0,0,0,0,0,0c0-0.6-0.5-1.1-1.1-1.1c-0.6,0-1.1,0.5-1.1,1.1s0.5,1.1,1.1,1.1c0.1,0,0.3,0,0.4-0.1l1,1.9
		c-0.8,1.3-1.5,2.6-2.1,4l-2.1,0.3c-0.1-0.5-0.5-0.9-1.1-0.9c-0.6,0-1.1,0.5-1.1,1.1s0.5,1.1,1.1,1.1c0.2,0,0.4-0.1,0.6-0.2l1.3,1.7
		c-0.5,1.4-0.9,2.8-1.3,4.3l-2,0.7c-0.2-0.4-0.5-0.7-1-0.7c-0.6,0-1.1,0.5-1.1,1.1c0,0.6,0.5,1.1,1.1,1.1c0.3,0,0.6-0.1,0.8-0.3
		l1.6,1.4c-0.2,1.5-0.4,3-0.4,4.5l-1.9,1.1C48.3,46.2,48,46,47.6,46c-0.6,0-1.1,0.5-1.1,1.1c0,0.6,0.5,1.1,1.1,1.1
		c0.4,0,0.7-0.2,0.9-0.5l1.9,1.1c0.1,1.5,0.2,3,0.4,4.5l-1.6,1.4c-0.2-0.2-0.5-0.3-0.8-0.3c-0.6,0-1.1,0.5-1.1,1.1
		c0,0.6,0.5,1.1,1.1,1.1c0.4,0,0.8-0.3,1-0.7l2,0.7c0.3,1.4,0.8,2.9,1.3,4.3l-0.9,1.1c0,0-0.1-0.1-0.1-0.1L50.1,61c0,0,0,0,0,0
		c0,0,0,0-0.1,0c0,0-0.1,0-0.1,0c0,0,0,0,0,0l-1.7,0.7c-0.1,0-0.2,0.1-0.2,0.2v0.5h-4.9V48.8h0.2c0.1,0,0.3-0.1,0.3-0.3V37.3
		c0-0.1-0.1-0.3-0.3-0.3h-1.2v-3.3c0,0,0-0.1,0-0.1L40.3,29v-4.9c0,0,0,0,0,0c0,0,0,0,0,0c-1.1-3.1-1.9-6.3-2.2-9.6v-3.1
		c0-0.1-0.1-0.3-0.3-0.3s-0.3,0.1-0.3,0.3v3.1c-0.4,3.3-1.1,6.5-2.2,9.6c0,0,0,0,0,0c0,0,0,0,0,0V29l-1.9,4.6c0,0,0,0.1,0,0.1V37
		h-1.2c-0.1,0-0.3,0.1-0.3,0.3v11.2c0,0.1,0.1,0.3,0.3,0.3h0.2v13.7h-3.1v-4.4c0,0,0,0,0,0c0,0,0,0,0,0l-1.1-4.2v-1.7
		c0-0.1-0.1-0.3-0.3-0.3s-0.3,0.1-0.3,0.3v1.7L27.1,56h-0.6l-1.4-5v-2.5c0-0.1-0.1-0.3-0.3-0.3s-0.3,0.1-0.3,0.3V51l-1.4,5h-0.6
		l-0.6-2.1v-1.7c0-0.1-0.1-0.3-0.3-0.3s-0.3,0.1-0.3,0.3v1.7L20.5,58c0,0,0,0,0,0c0,0,0,0,0,0V66c-2.5,2.2-5.2,4.2-7.9,6.1
		C8.7,65.6,6.5,58.1,6.5,50C6.5,26,26,6.5,50,6.5z M17.4,78.8v-7.5c1.1-1.1,2.1-2.3,3.1-3.5v14.2C19.4,80.9,18.4,79.9,17.4,78.8z
		 M43.1,92.9v-5.4c8.5-0.4,17-0.1,25.4,1.1v0.6C62.9,92,56.6,93.5,50,93.5C47.7,93.5,45.4,93.3,43.1,92.9z M79.7,81.7
		c-0.1,0-0.2,0-0.2-0.1v-9.1l1.3-3.2c0.6,0.7,1.2,1.3,1.8,1.9v5c-0.2,1-0.3,2-0.4,3C81.4,80.1,80.6,80.9,79.7,81.7z"/>
</g>
</svg>
