<?xml version="1.0" encoding="utf-8"?>
<!-- Generator: Adobe Illustrator 21.1.0, SVG Export Plug-In . SVG Version: 6.00 Build 0)  -->
<svg version="1.1" id="Слой_1" xmlns="http://www.w3.org/2000/svg" xmlns:xlink="http://www.w3.org/1999/xlink" x="0px" y="0px"
	 viewBox="0 0 100 125" style="enable-background:new 0 0 100 125;" xml:space="preserve">
<style type="text/css">
	.st0{fill:none;}
</style>
<g>
	<polygon class="st0" points="31.4,47.7 28.4,55.4 34.3,55.4 	"/>
	<path class="st0" d="M35.4,56.1h-8.1v8.3h8.1V56.1z M32.7,62.9h-2.5v-4.6h2.5V62.9z"/>
	<polygon class="st0" points="30.2,67.2 32.7,67.2 32.7,70.2 35.4,70.2 35.4,65.2 27.3,65.2 27.3,70.2 30.2,70.2 	"/>
	<polygon class="st0" points="50.2,61.1 50.2,61.3 50.2,64.3 50.2,64.4 50.2,65.1 50.2,70.2 52.3,70.2 52.3,65.1 52.3,64.4 
		52.3,64.3 52.3,61.2 52.3,61.1 52.3,60 52.3,54.6 50.2,54.6 50.2,60.1 	"/>
	<rect x="30.9" y="59" class="st0" width="1.1" height="3.2"/>
	<rect x="36.2" y="61.6" class="st0" width="4.2" height="2.9"/>
	<polygon class="st0" points="44.4,61.6 44.4,61.7 44.4,64.3 44.4,64.4 44.4,65.1 44.4,70.2 46.5,70.2 46.5,65.1 46.5,64.4 
		46.5,64.3 46.5,61.7 46.5,61.6 46.5,60.8 46.5,54.6 44.4,54.6 44.4,60.8 	"/>
	<polygon class="st0" points="47.3,61.6 47.3,61.7 47.3,64.3 47.3,64.4 47.3,65.1 47.3,70.2 49.4,70.2 49.4,65.1 49.4,60.8 
		49.4,54.6 47.3,54.6 47.3,60.8 	"/>
	<rect x="41.1" y="61.6" class="st0" width="2.6" height="2.9"/>
	<rect x="36.2" y="65.1" class="st0" width="7.5" height="5.1"/>
	<circle class="st0" cx="46.9" cy="90.3" r="0.8"/>
	<path class="st0" d="M47.9,88.2c-0.2-0.1-0.4-0.1-0.5-0.2c-0.1,0-0.3,0-0.4,0c-0.1,0-0.2,0-0.3,0c-0.1,0-0.1,0-0.2,0
		c-0.2,0.1-0.5,0.2-0.7,0.3c-0.6,0.4-1,1.1-1,1.9c0,1.2,1,2.3,2.3,2.3c1.2,0,2.3-1,2.3-2.3c0-0.6-0.3-1.2-0.7-1.6
		C48.3,88.5,48.1,88.3,47.9,88.2z M46.9,91.8c-0.9,0-1.6-0.7-1.6-1.6s0.7-1.6,1.6-1.6s1.6,0.7,1.6,1.6S47.7,91.8,46.9,91.8z"/>
	<polygon class="st0" points="36.2,81.9 35.4,81.9 35.3,81.9 35.3,81.9 35.3,82.8 35.3,82.9 35.2,83.6 35.2,83.8 35.2,83.9 
		36.2,83.9 36.4,83.8 36.5,83.6 37.2,82.9 38.2,81.9 	"/>
	<path class="st0" d="M29.2,81.9l-0.7,0l-1,0l-0.9,0l0,0.3l0,0.6l0,0.9l0,0.2l5,0c0,0,0,0,0,0v-0.2v0v-0.4v-0.4v0v-0.1v-0.9l-1.6,0
		L29.2,81.9z"/>
	<path class="st0" d="M18.9,88c-1.2,0-2.3,1-2.3,2.3s1,2.3,2.3,2.3c1.2,0,2.3-1,2.3-2.3S20.2,88,18.9,88z M18.9,91.8
		c-0.9,0-1.6-0.7-1.6-1.6c0-0.9,0.7-1.6,1.6-1.6c0.9,0,1.6,0.7,1.6,1.6C20.5,91.1,19.8,91.8,18.9,91.8z"/>
	<path class="st0" d="M17.7,70.2h3.5h0.1v-2L17.7,70.2C17.7,70.2,17.7,70.2,17.7,70.2L17.7,70.2L17.7,70.2z"/>
	<polygon class="st0" points="22.1,70.2 22.1,70.2 26.5,70.2 26.6,70.2 26.6,65.5 22.1,67.9 	"/>
	<circle class="st0" cx="18.9" cy="90.2" r="0.8"/>
	<path class="st0" d="M17.3,69.5l9.3-4.8l0.1-2.8L16,67.5c0,0,0,0.1,0.1,0.1C16.4,68.2,16.8,68.8,17.3,69.5
		C17.2,69.5,17.2,69.5,17.3,69.5z"/>
	<polygon class="st0" points="31,70.2 31.9,70.2 32,70.2 32,67.9 30.9,67.9 30.9,70.2 	"/>
	<path class="st0" d="M51.5,10.2h15.8h1h0.9h1.5c0.3,0,0.5-0.2,0.5-0.5c0-0.3-0.2-0.5-0.5-0.5l-3.8,0l-0.6,0c-0.2,0-0.4,0-0.6-0.1
		c-0.4-0.1-0.8-0.2-1.2-0.4c-0.3-0.2-0.6-0.4-0.9-0.7c-0.1-0.1-0.1-0.1-0.2-0.2c-0.6-0.6-1.4-0.9-2.2-0.9h-2.1h-2.3h-5.3h0
		c-0.9,0-1.7,0.7-1.7,1.7C49.9,9.4,50.6,10.2,51.5,10.2z"/>
	<path class="st0" d="M38,83.2l-0.5,0.5l-0.1,0.1l-0.1,0.1l0.3,0l0.1,0l1.3,0l0.2,0l1,0c0,0,0,0,0,0v-0.5v-0.1v-0.8v-0.5l-1,0
		L38,83.2z"/>
	<polygon class="st0" points="71.1,47.7 68.1,55.4 74,55.4 	"/>
	<rect x="62.2" y="61.6" class="st0" width="4.1" height="2.9"/>
	<rect x="57.1" y="32.4" class="st0" width="1.4" height="2.6"/>
	<rect x="58.8" y="61.6" class="st0" width="2.6" height="2.9"/>
	<path class="st0" d="M70.7,11C70.7,11,70.7,11,70.7,11l-0.8,0H69H57.9c-0.3,0.6-0.5,1.2-0.5,1.9c0,2,1.7,3.7,3.7,3.7h16.5h0.6h0.6
		h6.2c0.3,0,0.6-0.1,0.8-0.3c0.2-0.2,0.3-0.5,0.3-0.8c0-0.6-0.5-1.1-1.1-1.1h-3.3c-2,0-3.8-0.9-5.2-2.3l0,0L76,11.8
		c-1-1.4-2.5-2.2-4.2-2.5c0,0,0,0.1,0,0.1c0,0,0,0,0,0.1c0,0.1,0,0.2,0,0.2C71.9,10.4,71.4,11,70.7,11z"/>
	<polygon class="st0" points="53,65.1 53,70.2 55.2,70.2 55.2,65.1 55.2,64.4 55.2,64.3 55.2,61.7 55.2,61.6 55.2,60.8 55.2,54.6 
		53,54.6 53,60.8 	"/>
	<path class="st0" d="M69.1,28.1c0.9,0,1.6-0.7,1.6-1.7c0-0.6-0.8-2.1-1.6-3.3c-0.8,1.2-1.6,2.6-1.6,3.3
		C67.4,27.4,68.2,28.1,69.1,28.1z"/>
	<path class="st0" d="M56.6,12.9c0-0.7,0.1-1.3,0.4-1.9h-5.5c-1.4,0-2.5-1.1-2.5-2.5c0-0.6,0.2-1.2,0.6-1.6
		c-21.7,0.8-39,18.7-39,40.5c0,7,1.8,13.6,4.9,19.4l10.9-5.7l0.1-5.4v-2.6h0.7v2.2h0.3l3.7-9.7l3.7,9.7h0.3v-2.2h0.7v7.7h7.5v-6.2
		h-0.5c-1.1,0-2.1-0.9-2.1-2.1V37.1c0-1.1,0.9-2.1,2.1-2.1h0v-3.4H46h0V29v-0.4l4.8-4.8v-5h0.8v5l4.8,4.8v3h2.8v3.4h0
		c1.1,0,2.1,0.9,2.1,2.1v15.4c0,1.1-0.9,2.1-2.1,2.1h-0.5v6.2l7.5,0v-7.7H67v2.2h0.3l3.7-9.7l3.7,9.7h0.3v-2.2h0.7v7.9l11,5.7
		c3.1-5.8,4.9-12.4,4.9-19.4c0-11.9-5.2-22.6-13.3-30H61.1C58.6,17.4,56.6,15.4,56.6,12.9z M68.7,22.3l0.3-0.4l0.3,0.4
		c0,0,2.1,2.9,2.1,4.2c0,1.4-1.1,2.4-2.4,2.4c-1.3,0-2.4-1.1-2.4-2.4C66.6,25.2,68.7,22.3,68.7,22.3z"/>
	<polygon class="st0" points="51.2,24.6 47.4,28.4 55.1,28.4 	"/>
	<rect x="44" y="32.4" class="st0" width="1.4" height="2.6"/>
	<rect x="46.8" y="29.2" class="st0" width="8.8" height="2.5"/>
	<path class="st0" d="M60.6,52.5V37.1c0-0.7-0.6-1.3-1.3-1.3h-0.4H43.6h-0.4c-0.7,0-1.3,0.6-1.3,1.3v15.4c0,0.7,0.6,1.3,1.3,1.3h16
		C60,53.8,60.6,53.2,60.6,52.5z M51.2,51.6c-3.7,0-6.7-3-6.7-6.7c0-3.7,3-6.7,6.7-6.7c3.7,0,6.7,3,6.7,6.7
		C58,48.5,54.9,51.6,51.2,51.6z"/>
	<path class="st0" d="M55.9,61.6v0.1v2.6v0.1v0.7v5.1h1.5c0.2,0,0.4,0,0.6,0.1v-5.2v-0.7v-0.1v-2.6v-0.1v-0.7v-6.2h-2.1v6.2V61.6z"
		/>
	<rect x="46.2" y="32.4" class="st0" width="1.4" height="2.6"/>
	<path class="st0" d="M51.2,38.9c-3.3,0-6,2.7-6,6c0,3.3,2.7,6,6,6c3.3,0,6-2.7,6-6C57.2,41.5,54.5,38.9,51.2,38.9z M53.4,47.6
		L50.8,45v-3.6h0.8v3.3l2.3,2.3L53.4,47.6z"/>
	<rect x="52.7" y="32.4" class="st0" width="1.4" height="2.6"/>
	<rect x="54.9" y="32.4" class="st0" width="1.4" height="2.6"/>
	<rect x="48.3" y="32.4" class="st0" width="1.4" height="2.6"/>
	<rect x="50.5" y="32.4" class="st0" width="1.4" height="2.6"/>
	<polygon class="st0" points="56.2,91 57.1,91 59,89.2 56.2,89.2 	"/>
	<path class="st0" d="M75.9,79.6c0,0,0.1-0.1,0.1-0.1c1.5-1.2,3-2.5,4.4-3.9c0,0,0.1-0.1,0.1-0.1v-7.8l-4.6-2.4L75.9,79.6L75.9,79.6
		z"/>
	<path class="st0" d="M55.2,72.7l-2.1,0l-0.7,0l0,2l0.8,0l2.1,0l0.8,0l1.4,0c0,0,0,0,0,0v-2l-1.4,0L55.2,72.7z"/>
	<path class="st0" d="M60.1,87c1-0.2,1.9-0.5,2.9-0.8l-2.9-1.6V87z"/>
	<path class="st0" d="M81.2,74.8c0,0,0.1-0.1,0.1-0.1c1.3-1.4,2.5-3,3.6-4.6c0,0,0,0,0-0.1l-3.7-2V74.8z"/>
	<path class="st0" d="M67,73.6h8.1v-8.5H67V73.6z M69.7,67.2h2.5v4.6h-2.5V67.2z"/>
	<path class="st0" d="M75.9,64.4l9.5,4.9c0,0,0,0,0-0.1c0.4-0.6,0.7-1.1,1.1-1.7c0,0,0-0.1,0-0.1l-10.6-5.5L75.9,64.4L75.9,64.4z"/>
	<path class="st0" d="M46.5,72.7l-2.1,0l-0.7,0l0,0.3l0,1.7h0l0.7,0l2.1,0l0.8,0l1.5,0c0,0,0,0,0,0v-2l-1.5,0L46.5,72.7z"/>
	<path class="st0" d="M35.4,72.6l-0.2,0l0,1l0,0.7l0,0.1l0,0.2l0.1,0h0.1l0.7,0l4.1,0c0,0,0,0,0,0v-2l-4.2,0L35.4,72.6z"/>
	<rect x="70.5" y="67.9" class="st0" width="1.1" height="3.2"/>
	<path class="st0" d="M67,82.9h3.8c0.1,0,0.1-0.1,0.2-0.1c1.4-0.8,2.7-1.6,4-2.6c0,0,0.1-0.1,0.1-0.1v-5.8H67L67,82.9L67,82.9z
		 M69.8,76h2.5v4.6h-2.5V76z"/>
	<rect x="70.5" y="76.7" class="st0" width="1.1" height="3.2"/>
	<rect x="70.5" y="59" class="st0" width="1.1" height="3.2"/>
	<path class="st0" d="M26.7,72.6l0,2l0.6,0l0.1,0l4.3,0c0,0,0,0,0,0v-0.2v-0.1v-0.7v-1l-4.4,0L26.7,72.6z"/>
	<polygon class="st0" points="60.1,82.1 60.1,82.2 60.1,83.7 60.1,83.8 63.8,85.8 63.8,84.4 63.8,84.3 63.8,84.1 	"/>
	<path class="st0" d="M64.6,84.4v1.3c0,0,0.1,0,0.1,0c1.6-0.6,3.1-1.2,4.6-1.9c0.1,0,0.1-0.1,0.2-0.1h-4.2
		C64.9,83.6,64.6,84,64.6,84.4z"/>
	<path class="st0" d="M67,64.4h8.1v-8.3H67V64.4z M69.7,58.3h2.5v4.6h-2.5V58.3z"/>
	<path class="st0" d="M66.3,82.9V65.1h-7.5v5.5c0.8,0.5,1.3,1.3,1.3,2.3v8.4l4.1,2.2l0.1-0.1c0.3-0.3,0.7-0.5,1.1-0.5L66.3,82.9
		L66.3,82.9z"/>
	<path class="st0" d="M58.5,71.3c-0.1-0.1-0.3-0.2-0.4-0.2C57.8,71,57.6,71,57.4,71h-1.5h-0.8H53h-0.8h-2.1h-0.8h-2.1h-0.8h-2.1
		h-0.7h-0.1h-7.5h-0.7h-2.7H32h-1.1h-0.7h-2.8h-0.7h-0.1h-4.4h-0.1h-0.8h-0.1h-3h-0.5h-0.2c-0.1,0-0.2,0-0.2,0
		c-0.9,0.1-1.7,0.9-1.7,1.9v5.4h5.5h0.9h1.7h0.6H25h1.5h0.1h0.7h0.1h2.7h0.1H31h0.1h0.9H32h0.7h0.1h2.5h0.1h0.7h7.5h0.1h0.7h2.1h0.8
		H48h1.1h0.3h0.8h2.1H53h0.4h1.2h0.6h0.8H58h0.4h0.3h0.5v-5.4c0-0.5-0.2-1-0.5-1.3C58.7,71.5,58.6,71.4,58.5,71.3z M24,74.7
		c0,0.4-0.4,0.8-0.8,0.8h-1.1h-0.1h-0.1h-0.6h-0.2h-0.3h-2.7c-0.4,0-0.8-0.4-0.8-0.8v-2c0-0.4,0.2-0.7,0.6-0.8c0.1,0,0.1,0,0.2,0
		h0.2h0.5h2.3h0.1h0.8h0.1h1.1c0.4,0,0.8,0.4,0.8,0.8V74.7z M32.6,73.6v0.7v0.1v0.2c0,0.4-0.4,0.8-0.8,0.8h-4.3h-0.1h-0.6
		c0,0-0.1,0-0.1,0c0,0-0.1,0-0.1,0c-0.3-0.1-0.6-0.4-0.6-0.8v-2c0-0.4,0.2-0.6,0.6-0.8c0,0,0.1,0,0.1,0c0,0,0.1,0,0.1,0h0.6h4.4
		c0.4,0,0.8,0.4,0.8,0.8V73.6z M41.1,74.7c0,0.4-0.4,0.8-0.8,0.8h-4.1h-0.7h-0.1h-0.1c-0.4,0-0.8-0.4-0.8-0.8v-0.2v-0.1v-0.7v-1
		c0-0.4,0.4-0.8,0.8-0.8h0.2h0.7h4.1c0.4,0,0.8,0.4,0.8,0.8L41.1,74.7L41.1,74.7z M49.6,74.7c0,0.2-0.1,0.3-0.2,0.5
		c-0.1,0.2-0.4,0.3-0.6,0.3h-1.5h-0.8h-2.1h-0.7c0,0,0,0,0,0c0,0-0.1,0-0.1,0c-0.4-0.1-0.7-0.4-0.7-0.8v-2c0-0.4,0.3-0.7,0.7-0.8
		c0,0,0.1,0,0.1,0c0,0,0,0,0,0h0.7h2.1h0.8h1.5c0.3,0,0.5,0.1,0.6,0.3c0.1,0.1,0.2,0.3,0.2,0.5V74.7z M58.1,74.7
		c0,0.1,0,0.3-0.1,0.4c-0.1,0.3-0.4,0.4-0.7,0.4h-1.4h-0.8H53h-0.7c0,0,0,0,0,0c-0.4,0-0.8-0.4-0.8-0.8v-2c0-0.4,0.3-0.8,0.8-0.8
		c0,0,0,0,0,0H53h2.1h0.8h1.4c0.3,0,0.6,0.2,0.7,0.4c0.1,0.1,0.1,0.2,0.1,0.4V74.7z"/>
	<polygon class="st0" points="58.5,86.5 58,86.5 56.2,86.5 56.2,87.7 56.2,88.1 56.2,88.4 56.4,88.4 59.3,88.4 59.3,88 59.3,87.6 
		59.3,87.2 59.3,86.5 58.8,86.5 	"/>
	<path class="st0" d="M47.3,82.4l-0.8,0.8l-0.7,0.7l0.7,0l0.8,0l1.5,0c0,0,0,0,0,0v-2l-1,0L47.3,82.4z"/>
	<path class="st0" d="M50,80.6h-0.6h-1h-0.2h-0.9h-0.8h-1.1h-0.2h-0.8h-0.7h0h-0.1h-7.5h-0.7h-0.1h-2.5h-0.1h-2.5h-0.1h-2.2h-0.5
		h-0.1h-0.1h-0.6h-0.1h-3.8v3.3v0c0,0.4-0.4,0.8-0.8,0.8h-4.5l-0.1,0.1L16.1,86l-0.8,0.8l0,4.2H16c-0.1-0.3-0.1-0.5-0.1-0.8
		c0-1.7,1.4-3,3-3s3,1.4,3,3c0,0.3,0,0.5-0.1,0.8H25h12.8H44c-0.1-0.2-0.1-0.5-0.1-0.8c0-0.8,0.3-1.5,0.8-2c0.1-0.1,0.2-0.2,0.4-0.3
		c0.2-0.1,0.3-0.2,0.5-0.3c0.3-0.2,0.7-0.3,1-0.3c0.1,0,0.2,0,0.3,0c0.1,0,0.3,0,0.4,0c0.6,0.1,1,0.3,1.5,0.6
		c0.2,0.1,0.3,0.3,0.4,0.4c0.1,0.1,0.2,0.3,0.3,0.4c0.3,0.5,0.4,1,0.4,1.5c0,0.3,0,0.5-0.1,0.8h1.7v-2.3v-0.4V88v-7.4h-1.3L50,80.6
		L50,80.6z M32.3,82.8v0.1v0.4v0.3v0.1v0v0.2c0,0.1,0,0.1,0,0.2c-0.1,0.3-0.4,0.6-0.8,0.6h-5c-0.4,0-0.8-0.4-0.8-0.8v-0.2v-0.9v-0.9
		c0-0.4,0.4-0.8,0.8-0.8c0,0,0,0,0,0h0.9h0.1H28h0.7h2.8c0.4,0,0.8,0.4,0.8,0.8L32.3,82.8L32.3,82.8z M41.1,82v0.8V83v0.9
		c0,0.4-0.4,0.8-0.8,0.8h-1.5h-0.1h-0.7h-0.1h-2.5h0c-0.2,0-0.4-0.1-0.6-0.3c-0.1-0.1-0.2-0.3-0.2-0.5v-0.2v-0.1v-0.7v-0.1v-0.9
		c0-0.4,0.4-0.8,0.8-0.8h0.1h0.1h0.7h4.1C40.7,81.1,41.1,81.5,41.1,82L41.1,82L41.1,82z M49.6,83.9c0,0.2-0.1,0.3-0.2,0.5
		c-0.1,0.2-0.4,0.3-0.6,0.3h-1.5h-0.8h-2.1h-0.7c0,0,0,0,0,0c0,0-0.1,0-0.1,0c-0.3,0-0.5-0.2-0.6-0.4C43,84.2,43,84.1,43,83.9v-0.4
		v-0.1V82v0c0,0,0-0.1,0-0.1c0.1-0.4,0.3-0.6,0.7-0.7c0,0,0.1,0,0.1,0c0,0,0,0,0,0h0.5h0.2h0h2.1h0.7h0.1h0.1h1.3c0.1,0,0.1,0,0.2,0
		c0.2,0,0.4,0.1,0.5,0.3c0.1,0.1,0.2,0.3,0.2,0.5L49.6,83.9L49.6,83.9z"/>
	<polygon class="st0" points="22,80.6 21.2,80.6 17.7,80.6 17.7,83.9 17.7,84 22,84 	"/>
	<polygon class="st0" points="54.3,80.6 54.1,80.6 53,80.6 52.6,80.6 52.3,80.6 52.3,88 52.3,88.3 52.3,88.7 52.3,91 55.4,91 
		55.4,88.5 55.4,88.2 55.4,87.8 55.4,82.1 55.4,81.3 55.4,81.2 55.4,80.6 55.2,80.6 	"/>
	<polygon class="st0" points="58.5,83.7 58.3,83.7 58,83.7 56.2,83.7 56.2,85.7 58,85.7 58.5,85.7 58.8,85.7 59.3,85.7 59.3,84.3 
		59.3,83.7 58.8,83.7 	"/>
	<polygon class="st0" points="58.5,79.1 58,79.1 56,79.1 55.9,79.1 55.2,79.1 54.5,79.1 54.2,79.1 54,79.1 53.8,79.1 53,79.1 
		53,79.1 52.3,79.1 50.2,79.1 49.6,79.1 49.4,79.1 48.7,79.1 48.6,79.1 48.3,79.1 48.1,79.1 47.3,79.1 46.6,79.1 46.5,79.1 
		44.4,79.1 43.8,79.1 43.7,79.1 36.2,79.1 35.4,79.1 35.3,79.1 32.9,79.1 32.8,79.1 32,79.1 31.9,79.1 31.1,79.1 31,79.1 30.2,79.1 
		30.1,79.1 27.4,79.1 27.3,79.1 26.6,79.1 26.5,79.1 25.9,79.1 25.2,79.1 24.7,79.1 22.1,79.1 21.2,79.1 15.7,79.1 15.7,79.8 
		21.2,79.8 22.1,79.8 25.6,79.8 26.2,79.8 26.5,79.8 26.6,79.8 26.9,79.8 27.3,79.8 27.4,79.8 30.1,79.8 30.2,79.8 31,79.8 32,79.8 
		32.8,79.8 32.9,79.8 35.3,79.8 35.4,79.8 36.2,79.8 43.7,79.8 43.8,79.8 44.4,79.8 45.2,79.8 46.5,79.8 46.7,79.8 46.9,79.8 
		47.3,79.8 49.1,79.8 49.2,79.8 49.4,79.8 50,79.8 50.2,79.8 52.3,79.8 52.6,79.8 53,79.8 53.4,79.8 53.5,79.8 55.2,79.8 55.7,79.8 
		55.9,79.8 55.9,79.8 57.4,79.8 58,79.8 58.5,79.8 58.8,79.8 59.3,79.8 59.3,79.1 58.8,79.1 	"/>
	<path class="st0" d="M22.1,72.7l-0.8,0l-0.1,0l-1.7,0l-0.5,0l-0.5,0l-0.3,0l0,2l2,0l0.5,0l0.5,0h0h0.1l0.8,0h0.1l1.1,0c0,0,0,0,0,0
		v-2L22.1,72.7L22.1,72.7z"/>
	<polygon class="st0" points="46.5,82.1 46.7,81.9 46.5,81.9 46,81.9 45.8,81.9 44.4,81.9 43.8,81.9 43.8,82.2 43.7,83 43.7,83.1 
		43.7,83.9 43.8,83.9 43.8,83.9 44.4,83.9 44.7,83.9 45.8,82.9 	"/>
	<polygon class="st0" points="58.8,80.6 58.5,80.6 58,80.6 57.3,80.6 57.1,80.6 56.2,80.6 56.2,81.6 56.2,81.7 56.2,82.5 56.2,82.9 
		56.9,82.9 58,82.9 58.5,82.9 58.5,82.9 58.7,82.9 58.8,82.9 59.3,82.9 59.3,81.8 59.3,81.7 59.3,80.9 59.3,80.6 58.9,80.6 	"/>
	<path d="M79.6,17.4H79h-0.6c8.2,7.4,13.3,18.1,13.3,30c0,7-1.8,13.6-4.9,19.4l-11-5.7v-7.9h-0.7v2.2h-0.3l-3.7-9.7l-3.7,9.7H67
		v-2.2h-0.7v7.7l-7.5,0v-6.2h0.5c1.1,0,2.1-0.9,2.1-2.1V37.1c0-1.1-0.9-2.1-2.1-2.1h0v-3.4h-2.8v-3l-4.8-4.8v-5h-0.8v5l-4.8,4.8V29
		v2.7h0h-2.8v3.4h0c-1.1,0-2.1,0.9-2.1,2.1v15.4c0,1.1,0.9,2.1,2.1,2.1h0.5v6.2h-7.5v-7.7h-0.7v2.2h-0.3l-3.7-9.7l-3.7,9.7h-0.3
		v-2.2h-0.7v2.6l-0.1,5.4l-10.9,5.7c-3.2-5.8-4.9-12.4-4.9-19.4c0-21.9,17.4-39.7,39-40.5c0.1-0.1,0.3-0.3,0.4-0.4
		c0.3-0.2,0.7-0.4,1.1-0.4c0,0,0,0-0.1,0C28.4,6.1,9.9,24.6,9.9,47.4c0,7.4,2,14.4,5.5,20.5c0.4,0.6,0.8,1.3,1.2,1.9
		c0.1,0.2,0.2,0.4,0.3,0.5c-0.7,0.2-1.2,0.6-1.6,1.2c0,0,0,0.1-0.1,0.1c-0.2,0.4-0.3,0.8-0.3,1.3v7.7h0.3H17l-0.1,3.3l0,0.2
		l-0.7,0.7L15.1,86l-0.5,0.5v0.1l0,2.5l0,2.7h1.8c0.5,0.9,1.5,1.5,2.6,1.5c1.1,0,2-0.6,2.6-1.5H25h12.8h6.5c0.5,0.9,1.5,1.5,2.6,1.5
		s2.1-0.6,2.6-1.5h8l2.7-2.7v-1.3c1.6-0.3,3.1-0.8,4.6-1.3c2.2-0.8,4.3-1.7,6.3-2.8c0.6-0.3,1.1-0.6,1.6-0.9
		c0.8-0.5,1.7-1.1,2.5-1.6c0.3-0.2,0.6-0.4,0.9-0.7c1.5-1.2,3-2.4,4.4-3.8c0.3-0.3,0.6-0.6,0.9-1c1.6-1.7,3-3.4,4.3-5.3
		c4.4-6.6,7-14.5,7-23C92.6,35.6,87.6,24.9,79.6,17.4z M71.1,47.7l2.9,7.7h-5.9L71.1,47.7z M62.2,61.6h4.1v2.9h-4.1V61.6z
		 M61.4,61.6v2.9h-2.6v-2.9H61.4z M57.1,32.4h1.4v2.6h-1.4V32.4z M51.2,24.6l3.9,3.9h-7.7L51.2,24.6z M46.8,29.2h8.8v2.5h-8.8V29.2z
		 M56.3,32.4v2.6h-1.4v-2.6H56.3z M54.1,32.4v2.6h-1.4v-2.6H54.1z M51.9,32.4v2.6h-1.4v-2.6H51.9z M49.8,32.4v2.6h-1.4v-2.6H49.8z
		 M46.2,32.4h1.4v2.6h-1.4V32.4z M44,32.4h1.4v2.6H44V32.4z M43.2,53.8c-0.7,0-1.3-0.6-1.3-1.3V37.1c0-0.7,0.6-1.3,1.3-1.3h0.4h15.2
		h0.4c0.7,0,1.3,0.6,1.3,1.3v15.4c0,0.7-0.6,1.3-1.3,1.3H43.2z M58,54.6v6.2v0.7v0.1v2.6v0.1v0.7v5.2c-0.2,0-0.4-0.1-0.6-0.1h-1.5
		v-5.1v-0.7v-0.1v-2.6v-0.1v-0.8v-6.2H58z M55.2,54.6v6.2v0.8v0.1v2.6v0.1v0.7v5.1H53v-5.1v-4.3v-6.2L55.2,54.6L55.2,54.6z
		 M52.3,54.6V60v1.1v0.1v3.1v0.1v0.7v5.1h-2.1v-5.1v-0.7v-0.1v-3v-0.1v-1.1v-5.5L52.3,54.6L52.3,54.6z M49.4,54.6v6.2v4.3v5.1h-2.1
		v-5.1v-0.7v-0.1v-2.6v-0.1v-0.7v-6.2L49.4,54.6L49.4,54.6z M46.5,54.6v6.2v0.7v0.1v2.6v0.1v0.7v5.1h-2.1v-5.1v-0.7v-0.1v-2.6v-0.1
		v-0.7v-6.2H46.5z M41.1,61.6h2.6v2.9h-2.6V61.6z M36.2,61.6h4.2v2.9h-4.2V61.6z M36.2,65.1h7.5v5.1h-7.5V65.1z M31.4,47.7l2.9,7.7
		h-5.9L31.4,47.7z M27.3,56.1h8.1v8.3h-8.1V56.1z M27.3,65.2h8.1v5.1h-2.7v-3h-2.5v3h-2.8V65.2z M32,67.9v2.3h-0.1H31h-0.1v-2.3H32z
		 M16,67.6C16,67.5,16,67.5,16,67.6l10.6-5.6l-0.1,2.8l-9.3,4.8c0,0,0-0.1-0.1-0.1C16.8,68.8,16.4,68.2,16,67.6z M26.6,65.5v4.7
		h-0.1h-4.4h-0.1l0-2.4L26.6,65.5z M21.3,68.3v2h-0.1h-3.5h0c0,0,0,0-0.1-0.1L21.3,68.3z M18.9,92.5c-1.2,0-2.3-1-2.3-2.3
		s1-2.3,2.3-2.3c1.2,0,2.3,1,2.3,2.3S20.2,92.5,18.9,92.5z M46.9,92.5c-1.2,0-2.3-1-2.3-2.3c0-0.8,0.4-1.5,1-1.9
		c0.2-0.1,0.4-0.2,0.7-0.3c0.1,0,0.1,0,0.2,0c0.1,0,0.2,0,0.3,0c0.1,0,0.3,0,0.4,0c0.2,0,0.4,0.1,0.5,0.2c0.2,0.1,0.4,0.3,0.6,0.4
		c0.4,0.4,0.7,1,0.7,1.6C49.1,91.5,48.1,92.5,46.9,92.5z M51.5,88v0.4v0.4V91h-1.7c0.1-0.2,0.1-0.5,0.1-0.8c0-0.6-0.2-1.1-0.4-1.5
		c-0.1-0.1-0.2-0.3-0.3-0.4c-0.1-0.2-0.3-0.3-0.4-0.4c-0.4-0.3-0.9-0.6-1.5-0.6c-0.1,0-0.3,0-0.4,0c-0.1,0-0.2,0-0.3,0
		c-0.4,0-0.7,0.1-1,0.3c-0.2,0.1-0.3,0.2-0.5,0.3c-0.1,0.1-0.2,0.2-0.4,0.3c-0.5,0.5-0.8,1.2-0.8,2c0,0.3,0,0.5,0.1,0.8h-6.2H25
		h-3.1c0.1-0.3,0.1-0.5,0.1-0.8c0-1.7-1.4-3-3-3s-3,1.4-3,3c0,0.3,0,0.5,0.1,0.8h-0.7l0-4.2l0.8-0.8l1.1-1.2l0.1-0.1H22
		c0.4,0,0.8-0.4,0.8-0.8v0v-3.3h3.8h0.1h0.6h0.1h0.1h0.5h2.2h0.1h2.5h0.1h2.5h0.1h0.7h7.5h0.1h0h0.7h0.8h0.2h1.1h0.8h0.9h0.2h1H50
		h0.2h1.3L51.5,88L51.5,88z M17.7,84L17.7,84l0.1-3.4h3.5H22l0,3.4H17.7z M55.4,81.2v0.1v0.9v5.6v0.4v0.4V91h-3.1v-2.3v-0.4V88v-7.4
		h0.3H53h1.1h0.2h0.8h0.2L55.4,81.2L55.4,81.2z M57.1,91h-1v-1.8H59L57.1,91z M59.3,87.2v0.4V88v0.5h-2.9h-0.2v-0.4v-0.4v-1.2H58
		h0.4h0.3h0.5L59.3,87.2L59.3,87.2z M59.3,84.3v1.5h-0.5h-0.3H58h-1.9v-2H58h0.3h0.2h0.3h0.5V84.3z M59.3,80.9v0.8v0.1v1.1h-0.5
		h-0.1h-0.2h0H58h-1.1h-0.7v-0.4v-0.9v-0.1v-1h0.9h0.2H58h0.4h0.3h0.1h0.5L59.3,80.9L59.3,80.9z M59.3,79.8h-0.5h-0.3H58h-0.6h-1.5
		h0h-0.2h-0.5h-1.6h-0.1h-0.4h-0.5h-0.3h-2.1H50h-0.6h-0.2h-0.1h-1.7h-0.4h-0.2h-0.1h-1.4h-0.7h-0.7h-0.1h-7.5h-0.7h-0.1h-2.5h-0.1
		H32H31h-0.7h-0.1h-2.7h-0.1h-0.5h-0.2h-0.1h-0.3h-0.6h-3.5h-0.9h-5.5v-0.8h5.5h0.9h2.5h0.6h0.6h0.6h0.1h0.7h0.1h2.7h0.1H31h0.1h0.9
		H32h0.7h0.1h2.5h0.1h0.7h7.5h0.1h0.7h2.1h0.1h0.7h0.8h0.2h0.3h0.1h0.7h0.2h0.6h2.1H53H53h0.8H54h0.3h0.2h0.7h0.8H56h2h0.4h0.3h0.5
		V79.8z M59.3,78.3h-0.5h-0.3H58h-2.1h-0.8h-0.6h-1.2H53h-0.8h-2.1h-0.8h-0.3H48h-0.7h-0.8h-2.1h-0.7h-0.1h-7.5h-0.7h-0.1h-2.5h-0.1
		H32h-0.1h-0.9H31h-0.7h-0.1h-2.7h-0.1h-0.7h-0.1H25h-0.6h-0.6h-1.7h-0.9h-5.5v-5.4c0-1,0.7-1.8,1.7-1.9c0.1,0,0.2,0,0.2,0h0.2h0.5
		h3h0.1h0.8h0.1h4.4h0.1h0.7h2.8h0.7H32h0.7h2.7h0.7h7.5h0.1h0.7h2.1h0.8h2.1h0.8h2.1h0.8h2.1h0.8h1.5c0.2,0,0.4,0,0.6,0.1
		c0.2,0.1,0.3,0.1,0.4,0.2c0.1,0.1,0.2,0.2,0.3,0.3c0.3,0.3,0.5,0.8,0.5,1.3L59.3,78.3L59.3,78.3z M60.1,87v-2.3l2.9,1.6
		C62,86.5,61.1,86.8,60.1,87z M63.8,84.4v1.4l-3.7-2v-0.1v-1.5v-0.1l3.7,2L63.8,84.4L63.8,84.4z M64.2,83.5l-4.1-2.2v-8.4
		c0-1-0.5-1.8-1.3-2.3v-5.5h7.5v17.8h-1C64.9,82.9,64.5,83.1,64.2,83.5L64.2,83.5z M69.3,83.8c-1.5,0.7-3,1.4-4.6,1.9
		c0,0-0.1,0-0.1,0v-1.3c0-0.4,0.3-0.7,0.7-0.7h4.2C69.4,83.7,69.3,83.7,69.3,83.8z M75.1,80.2c0,0-0.1,0.1-0.1,0.1
		c-1.3,0.9-2.6,1.8-4,2.6c-0.1,0-0.1,0.1-0.2,0.1H67v-8.6h8.1L75.1,80.2L75.1,80.2z M75.1,73.6H67v-8.5h8.1V73.6z M75.1,64.4H67
		v-8.3h8.1V64.4z M80.4,75.5c0,0-0.1,0.1-0.1,0.1C79,77,77.5,78.4,76,79.5c0,0-0.1,0.1-0.1,0.1V65.3l4.6,2.4L80.4,75.5L80.4,75.5z
		 M84.9,70.1c-1.1,1.6-2.3,3.1-3.6,4.6c0,0-0.1,0.1-0.1,0.1v-6.7L84.9,70.1C84.9,70.1,84.9,70.1,84.9,70.1z M86.4,67.6
		c-0.3,0.6-0.7,1.2-1.1,1.7c0,0,0,0,0,0.1l-9.5-4.9v-2.5L86.4,67.6C86.5,67.5,86.4,67.5,86.4,67.6z"/>
	<path d="M49.7,6.9c-0.4,0.4-0.6,1-0.6,1.6c0,1.4,1.1,2.5,2.5,2.5H57c-0.3,0.6-0.4,1.2-0.4,1.9c0,2.5,2,4.5,4.5,4.5h17.4H79h0.5h5.3
		c1,0,1.9-0.8,1.9-1.9c0-1-0.8-1.9-1.9-1.9h-3.3c-1.9,0-3.7-0.9-4.9-2.4c-1.4-1.8-3.6-2.9-5.9-2.9l0,0l0,0c0,0-0.1,0-0.1,0h-4.4
		c-0.8,0-1.5-0.3-2.1-0.8l0,0L64,7.3c-0.7-0.8-1.7-1.2-2.8-1.2h-9.7c-0.1,0-0.2,0-0.2,0c-0.4,0-0.8,0.2-1.1,0.4
		C50,6.6,49.8,6.8,49.7,6.9z M71.9,9.4C71.9,9.4,71.9,9.4,71.9,9.4c0-0.1,0-0.1,0-0.2c1.7,0.3,3.1,1.1,4.2,2.5l0.3,0.4l0,0
		c1.3,1.4,3.2,2.3,5.2,2.3h3.3c0.6,0,1.1,0.5,1.1,1.1c0,0.3-0.1,0.6-0.3,0.8c-0.2,0.2-0.5,0.3-0.8,0.3h-6.2h-0.6h-0.6H61.1
		c-2,0-3.7-1.7-3.7-3.7c0-0.7,0.2-1.3,0.5-1.9H69h0.9h0.8c0,0,0,0,0,0c0.7,0,1.3-0.6,1.3-1.3C71.9,9.6,71.9,9.5,71.9,9.4z M51.5,6.9
		L51.5,6.9h5.3h2.3h2.1c0.8,0,1.6,0.3,2.2,0.9c0.1,0.1,0.1,0.1,0.2,0.2c0.3,0.3,0.6,0.5,0.9,0.7c0.4,0.2,0.8,0.3,1.2,0.4
		c0.2,0,0.4,0.1,0.6,0.1l0.6,0l3.8,0c0.3,0,0.5,0.2,0.5,0.5c0,0.3-0.2,0.5-0.5,0.5h-1.5h-0.9h-1H51.5c-0.9,0-1.7-0.7-1.7-1.7
		C49.9,7.6,50.6,6.9,51.5,6.9z"/>
	<path d="M69.1,28.9c1.3,0,2.4-1.1,2.4-2.4c0-1.3-2.1-4.2-2.1-4.2l-0.3-0.4l-0.3,0.4c0,0-2.1,2.9-2.1,4.2
		C66.6,27.8,67.7,28.9,69.1,28.9z M69.1,23.2c0.8,1.2,1.6,2.6,1.6,3.3c0,0.9-0.7,1.7-1.6,1.7c-0.9,0-1.6-0.7-1.6-1.7
		C67.4,25.9,68.3,24.4,69.1,23.2z"/>
	<path d="M51.2,38.1c-3.7,0-6.7,3-6.7,6.7c0,3.7,3,6.7,6.7,6.7c3.7,0,6.7-3,6.7-6.7C58,41.1,54.9,38.1,51.2,38.1z M51.2,50.8
		c-3.3,0-6-2.7-6-6c0-3.3,2.7-6,6-6c3.3,0,6,2.7,6,6C57.2,48.1,54.5,50.8,51.2,50.8z"/>
	<polygon points="51.6,41.4 50.8,41.4 50.8,45 53.4,47.6 53.9,47 51.6,44.7 	"/>
	<path d="M30.2,62.9h2.5v-4.6h-2.5V62.9z M30.9,59H32v3.2h-1.1V59z"/>
	<path d="M72.3,58.3h-2.5v4.6h2.5V58.3z M71.5,62.2h-1.1V59h1.1V62.2z"/>
	<path d="M72.3,67.2h-2.5v4.6h2.5V67.2z M71.5,71.1h-1.1v-3.2h1.1V71.1z"/>
	<path d="M72.3,76h-2.5v4.6h2.5V76z M71.6,79.9h-1.1v-3.2h1.1V79.9z"/>
	<polygon points="5.7,94 83,94 83,93.3 46.9,93.3 5.7,93.3 	"/>
	<path d="M18.9,88.7c-0.9,0-1.6,0.7-1.6,1.6c0,0.9,0.7,1.6,1.6,1.6c0.9,0,1.6-0.7,1.6-1.6C20.5,89.4,19.8,88.7,18.9,88.7z M18.9,91
		c-0.4,0-0.8-0.4-0.8-0.8c0-0.4,0.4-0.8,0.8-0.8s0.8,0.4,0.8,0.8C19.7,90.7,19.4,91,18.9,91z"/>
	<path d="M23.2,71.9h-1.1h-0.1h-0.8h-0.1h-2.3h-0.5h-0.2c-0.1,0-0.2,0-0.2,0c-0.3,0.1-0.6,0.4-0.6,0.8v2c0,0.4,0.4,0.8,0.8,0.8h2.7
		h0.3h0.2h0.6h0.1h0.1h1.1c0.4,0,0.8-0.4,0.8-0.8v-2C24,72.2,23.6,71.9,23.2,71.9z M23.2,74.7C23.2,74.7,23.2,74.7,23.2,74.7l-1.1,0
		h-0.1l-0.8,0h-0.1h0l-0.5,0l-0.5,0l-2,0l0-2l0.3,0l0.5,0l0.5,0l1.7,0l0.1,0l0.8,0l0.1,0l1.1,0L23.2,74.7L23.2,74.7z"/>
	<path d="M48.8,71.9h-1.5h-0.8h-2.1h-0.7c0,0,0,0,0,0c0,0-0.1,0-0.1,0c-0.4,0.1-0.7,0.4-0.7,0.8v2c0,0.4,0.3,0.7,0.7,0.8
		c0,0,0.1,0,0.1,0c0,0,0,0,0,0h0.7h2.1h0.8h1.5c0.3,0,0.5-0.1,0.6-0.3c0.1-0.1,0.2-0.3,0.2-0.5v-2c0-0.2-0.1-0.3-0.2-0.5
		C49.3,72,49,71.9,48.8,71.9z M48.8,74.7C48.8,74.7,48.8,74.7,48.8,74.7l-1.5,0l-0.8,0l-2.1,0l-0.7,0h0l0-1.7l0-0.3l0.7,0l2.1,0
		l0.8,0l1.5,0V74.7z"/>
	<path d="M48.9,81.2c-0.1,0-0.1,0-0.2,0h-1.3h-0.1h-0.1h-0.7h-2.1h0h-0.2h-0.5c0,0,0,0,0,0c0,0-0.1,0-0.1,0c-0.4,0-0.6,0.3-0.7,0.7
		c0,0,0,0.1,0,0.1v0v1.5v0.1v0.4c0,0.1,0.1,0.3,0.1,0.4c0.1,0.2,0.3,0.4,0.6,0.4c0,0,0.1,0,0.1,0c0,0,0,0,0,0h0.7h2.1h0.8h1.5
		c0.3,0,0.5-0.1,0.6-0.3c0.1-0.1,0.2-0.3,0.2-0.5v-2c0-0.2-0.1-0.3-0.2-0.5C49.3,81.3,49.1,81.2,48.9,81.2z M44.4,83.9l-0.6,0
		l-0.1,0h0l0-0.8l0-0.1l0-0.8l0-0.3l0.7,0l1.3,0l0.2,0l0.5,0l0.2,0l-0.2,0.2l-0.7,0.7l-1.1,1.1L44.4,83.9z M48.8,83.9
		C48.8,83.9,48.8,84,48.8,83.9l-1.5,0l-0.8,0l-0.7,0l0.7-0.7l0.8-0.8l0.5-0.5l1,0V83.9z"/>
	<path d="M40.3,81.1h-4.1h-0.7h-0.1h-0.1c-0.4,0-0.8,0.4-0.8,0.8v0.9v0.1v0.7v0.1v0.2c0,0.2,0.1,0.4,0.2,0.5
		c0.1,0.2,0.4,0.3,0.6,0.3h0h2.5h0.1h0.7h0.1h1.5c0.4,0,0.8-0.4,0.8-0.8V83v-0.1V82v-0.1C41.1,81.5,40.7,81.1,40.3,81.1z M36.5,83.6
		l-0.1,0.1l-0.2,0.2l-1,0l0-0.2l0-0.1l0-0.7l0-0.1l0-0.9h0.1l0.1,0l0.7,0l2.1,0l-1,1L36.5,83.6z M40.3,82.5v0.8v0.1v0.5c0,0,0,0,0,0
		l-1,0l-0.2,0l-1.3,0l-0.1,0l-0.3,0l0.1-0.1l0.1-0.1l0.5-0.5l1.3-1.3l1,0L40.3,82.5L40.3,82.5z"/>
	<path d="M31.5,81.1h-2.8H28h-0.6h-0.1h-0.9c0,0,0,0,0,0c-0.4,0-0.8,0.4-0.8,0.8v0.9v0.9v0.2c0,0.4,0.4,0.8,0.8,0.8h5
		c0.4,0,0.7-0.3,0.8-0.6c0-0.1,0-0.1,0-0.2v-0.2v0v-0.1v-0.3v-0.4v-0.1v-0.9C32.3,81.5,32,81.1,31.5,81.1z M31.6,82.8L31.6,82.8v0.1
		v0.4v0.4v0v0.2c0,0,0,0,0,0l-5,0l0-0.2l0-0.9l0-0.6l0-0.3l0.9,0l1,0l0.7,0l0.7,0l1.6,0L31.6,82.8L31.6,82.8z"/>
	<path d="M31.8,71.9h-4.4h-0.6c0,0-0.1,0-0.1,0c0,0-0.1,0-0.1,0c-0.3,0.1-0.6,0.4-0.6,0.8v2c0,0.4,0.2,0.6,0.6,0.8c0,0,0.1,0,0.1,0
		c0,0,0.1,0,0.1,0h0.6h0.1h4.3c0.4,0,0.8-0.4,0.8-0.8v-0.2v-0.1v-0.7v-1C32.6,72.2,32.2,71.9,31.8,71.9z M31.8,73.6v0.7v0.1v0.2
		c0,0,0,0,0,0l-4.3,0l-0.1,0l-0.6,0l0-2l0.6,0l4.4,0L31.8,73.6L31.8,73.6z"/>
	<path d="M40.3,71.9h-4.1h-0.7h-0.2c-0.4,0-0.8,0.4-0.8,0.8v1v0.7v0.1v0.2c0,0.4,0.4,0.8,0.8,0.8h0.1h0.1h0.7h4.1
		c0.4,0,0.8-0.4,0.8-0.8v-2C41.1,72.2,40.7,71.9,40.3,71.9z M40.3,74.7C40.3,74.7,40.3,74.7,40.3,74.7l-4.2,0l-0.7,0h-0.1l-0.1,0
		l0-0.2l0-0.1l0-0.7l0-1l0.2,0l0.7,0l4.2,0L40.3,74.7L40.3,74.7z"/>
	<path d="M57.3,71.9h-1.4h-0.8H53h-0.7c0,0,0,0,0,0c-0.4,0-0.8,0.4-0.8,0.8v2c0,0.4,0.3,0.8,0.8,0.8c0,0,0,0,0,0H53h2.1h0.8h1.4
		c0.3,0,0.6-0.2,0.7-0.4c0.1-0.1,0.1-0.2,0.1-0.4v-2c0-0.1,0-0.3-0.1-0.4C57.9,72.1,57.6,71.9,57.3,71.9z M57.4,74.7
		C57.4,74.7,57.4,74.7,57.4,74.7l-1.4,0l-0.8,0l-2.1,0l-0.8,0l0-2l0.7,0l2.1,0l0.8,0l1.4,0L57.4,74.7L57.4,74.7z"/>
	<path d="M46.9,88.7c-0.9,0-1.6,0.7-1.6,1.6s0.7,1.6,1.6,1.6s1.6-0.7,1.6-1.6S47.7,88.7,46.9,88.7z M46.9,91c-0.4,0-0.8-0.4-0.8-0.8
		s0.4-0.8,0.8-0.8c0.4,0,0.8,0.4,0.8,0.8S47.3,91,46.9,91z"/>
	<rect x="85.5" y="93.3" width="5.6" height="0.7"/>
	<rect x="93.1" y="93.3" width="1.4" height="0.8"/>
	<rect x="73.9" y="88.4" width="11.9" height="0.8"/>
	<rect x="70" y="88.4" width="2" height="0.8"/>
</g>
</svg>
