<?xml version="1.0" encoding="iso-8859-1"?>
<!-- Generator: Adobe Illustrator 19.0.0, SVG Export Plug-In . SVG Version: 6.00 Build 0)  -->
<svg version="1.1" id="Capa_1" xmlns="http://www.w3.org/2000/svg" xmlns:xlink="http://www.w3.org/1999/xlink" x="0px" y="0px"
	 viewBox="0 0 512.001 512.001" style="enable-background:new 0 0 512.001 512.001;" xml:space="preserve">
<path style="fill:#F3D1BB;" d="M107.887,122.767v114.865h-1.817c-16.084,0-29.124,13.039-29.124,29.124l0,0
	c0,16.085,13.039,29.124,29.124,29.124h1.864c1.63,57.627,48.853,103.843,106.874,103.843h21.085c0,3.866,0,7.19,0,7.2
	c0,9.682-0.123,9.401-9.369,10.703c-7.13,1.004-13.969,3.762-19.809,7.975c-11.556,8.335-18.548,21.972-18.548,36.221V504.5h135.671
	v-42.677c0-14.249-6.991-27.886-18.548-36.221c-5.839-4.211-12.679-6.97-19.809-7.975c-9.246-1.301-9.369-1.021-9.369-10.703
	c0-0.011,0-3.334,0-7.2h21.085c59.051,0,106.921-47.87,106.921-106.921V122.769h-296.23V122.767z"/>
<path style="fill:#ECC19C;" d="M406.436,237.632h-1.726c0,0-0.534,0-0.587,0V122.767h-42.27v170.031
	c0,59.058-47.861,106.92-106.92,106.92h42.27c58.013,0,105.24-46.206,106.872-103.837c0.399,0,0.634,0,0.634,0h1.726
	c8.452,0,16.062-3.6,21.382-9.35c4.805-5.194,7.741-12.141,7.741-19.774C435.56,250.671,422.521,237.632,406.436,237.632z"/>
<g>
	<circle style="fill:#E8979F;" cx="169.504" cy="321.762" r="15.93"/>
	<circle style="fill:#E8979F;" cx="342.498" cy="321.762" r="15.93"/>
</g>
<path style="fill:#F2B844;" d="M405.229,131.026c0-14.989-4.003-29.782-12.025-42.443c-11.696-18.46-28.674-28.344-44.027-32.201
	c-24.21-6.082-47.169-17.222-67.934-32.25c-6.637-4.804-13.147-9.029-17.936-12.018c-3.004-1.875-7.006-0.123-7.561,3.373
	c-0.926,5.833-4.079,11.109-9.736,14.015c-5.419,2.785-11.787,2.237-16.776-1.208c-3.105-2.145-6.144-3.998-8.761-5.493
	c-3.17-1.81-7.175,0.297-7.444,3.937c-0.882,11.968-9.083,19.914-16.429,24.689c-5.459,3.548-11.571,5.627-17.854,6.515
	c-21.44,3.032-36.92,12.48-47.896,23.106c-15.594,15.097-24.074,36.093-24.074,57.798v86.925c0,0,71.352-6.972,98.018-89.002
	c2.704-8.317,10.38-14.002,19.126-14.002h64.164c8.746,0,16.422,5.685,19.126,14.002c26.666,82.03,98.018,89.002,98.018,89.002
	L405.229,131.026L405.229,131.026z"/>
<path style="fill:#E59E2C;" d="M405.233,131.248v94.519c0,0-19.062-1.86-41.16-14.995c0,0,0-79.515,0-79.524
	c0-16.01-2.891-30.78-16.44-39.246c-32.356-20.22-45.48-22.071-74.978-45.674c-2.561-2.049-23.843-18.469-25.627-17.397
	c5.069-3.048,7.839-7.949,8.702-13.35c0.565-3.538,4.534-5.369,7.574-3.471c4.789,2.989,11.301,7.214,17.94,12.02
	c20.761,15.036,43.728,26.178,67.926,32.251c15.544,3.906,32.732,13.978,44.437,32.852
	C401.407,101.806,405.233,116.454,405.233,131.248z"/>
<path style="fill:#7B5FC1;" d="M323.835,461.823v42.675H188.171v-42.675c0-14.253,6.986-27.889,18.54-36.219
	c3.731-2.691,7.869-4.788,12.235-6.211c2.464-0.805,5.007-1.4,7.58-1.768c3.77-0.532,6.024-0.79,7.369-1.58l1.729,0.383l4.357,2.464
	c9.849,5.586,21.888,5.625,31.776,0.109l4.623-2.574l1.729-0.383c1.345,0.79,3.598,1.048,7.369,1.58
	c2.574,0.368,5.117,0.962,7.58,1.768c4.365,1.423,8.504,3.52,12.235,6.211C316.849,433.935,323.835,447.571,323.835,461.823z"/>
<g>
	<path style="fill:#35A6DE;" d="M233.446,416.27v88.228h-20.867v-82.466c2.051-1.05,4.181-1.931,6.362-2.641
		c2.471-0.8,5.012-1.4,7.582-1.771C229.905,417.14,232.065,416.89,233.446,416.27z"/>
	<path style="fill:#35A6DE;" d="M299.427,422.031v82.466H278.56V416.27c1.38,0.62,3.541,0.87,6.922,1.35
		c2.571,0.37,5.112,0.97,7.582,1.771C295.245,420.101,297.376,420.981,299.427,422.031z"/>
</g>
<path style="fill:#E59E2C;" d="M227.107,209.077h-30.665c-4.144,0-7.502-3.359-7.502-7.502s3.358-7.502,7.502-7.502h30.664
	c4.144,0,7.502,3.359,7.502,7.502S231.25,209.077,227.107,209.077z"/>
<path d="M256.003,332.025c-9.18,0-17.423-5.463-20.998-13.917c-1.615-3.816,0.171-8.219,3.986-9.833
	c3.816-1.613,8.219,0.17,9.832,3.987c1.223,2.89,4.04,4.758,7.179,4.758c2.984,0,5.746-1.743,7.034-4.438
	c1.787-3.739,6.268-5.32,10.004-3.533c3.738,1.787,5.32,6.266,3.533,10.004C272.808,326.933,264.734,332.025,256.003,332.025z"/>
<path d="M211.774,293.811c-4.144,0-7.502-3.359-7.502-7.502v-23.041c0-4.143,3.358-7.502,7.502-7.502s7.502,3.359,7.502,7.502
	v23.041C219.276,290.452,215.918,293.811,211.774,293.811z"/>
<path d="M300.229,293.811c-4.144,0-7.502-3.359-7.502-7.502v-23.041c0-4.143,3.358-7.502,7.502-7.502s7.502,3.359,7.502,7.502
	v23.041C307.731,290.452,304.373,293.811,300.229,293.811z"/>
<path style="fill:#E59E2C;" d="M314.196,264.666h-30.664c-4.144,0-7.502-3.359-7.502-7.502c0-4.143,3.358-7.502,7.502-7.502h30.664
	c4.144,0,7.502,3.359,7.502,7.502C321.699,261.307,318.341,264.666,314.196,264.666z"/>
<path d="M300.676,374.793h-17.144c-4.144,0-7.502-3.359-7.502-7.502s3.358-7.502,7.502-7.502h17.144
	c4.144,0,7.502,3.359,7.502,7.502S304.82,374.793,300.676,374.793z"/>
<path d="M411.368,230.504l1.109-99.256c0-16.628-4.406-32.522-12.743-45.966c-15.253-24.6-37.237-33.225-48.983-36.175
	c-22.824-5.734-44.817-16.182-65.364-31.052c-13.196-9.551-25.7-16.755-26.226-17.057c-2.52-1.447-5.645-1.309-8.026,0.35
	c-2.383,1.661-3.593,4.545-3.107,7.408c0.064,0.38,0.125,0.758,0.184,1.129c0.979,6.233-2.016,10.555-5.145,12.523
	c-1.841,1.156-5.564,2.655-9.824-0.287c-9.036-6.241-17.478-10.135-17.832-10.298c-2.548-1.168-5.535-0.819-7.742,0.905
	c-2.21,1.725-3.273,4.536-2.759,7.291c1.867,9.996-2.391,18.447-12.652,25.117c-4.282,2.783-9.268,4.592-14.816,5.377
	c-20.3,2.871-37.836,11.349-52.118,25.197c-16.716,16.21-26.303,39.256-26.303,63.232l1.11,91.631
	c-17.506,2.74-30.941,17.921-30.941,36.182c0,18.421,13.671,33.703,31.4,36.247c5.179,58.331,54.309,104.222,113.964,104.222h13.582
	c0,0.819-0.002,1.735-0.018,2.554c-0.583,0.088-1.215,0.176-1.819,0.261l-1.099,0.155c-0.903,0.13-1.81,0.294-2.715,0.474
	c-0.312,0.061-0.621,0.13-0.931,0.197c-0.588,0.128-1.175,0.267-1.762,0.416c-0.353,0.089-0.706,0.174-1.057,0.27
	c-0.793,0.218-1.583,0.451-2.371,0.706c-0.056,0.018-0.111,0.04-0.166,0.058c-0.168,0.056-0.335,0.117-0.502,0.175
	c-0.774,0.264-1.54,0.546-2.3,0.846c-0.156,0.062-0.314,0.121-0.469,0.184c-0.854,0.347-1.698,0.716-2.528,1.106
	c-0.195,0.092-0.388,0.189-0.582,0.283c-0.304,0.148-0.613,0.291-0.913,0.445c-0.085,0.044-0.161,0.1-0.244,0.147
	c-2.287,1.178-4.497,2.506-6.588,4.013c-13.562,9.783-21.66,25.598-21.661,42.305v42.677c0,4.143,3.358,7.502,7.502,7.502h24.412
	h20.867h45.114h20.867h24.412c4.144,0,7.502-3.359,7.502-7.502v-42.677c-0.001-16.707-8.1-32.522-21.661-42.305
	c-2.092-1.508-4.303-2.836-6.59-4.014c-0.083-0.046-0.157-0.103-0.242-0.146c-0.298-0.153-0.604-0.294-0.906-0.441
	c-0.197-0.096-0.393-0.195-0.591-0.288c-0.827-0.389-1.668-0.757-2.521-1.103c-0.16-0.065-0.322-0.126-0.483-0.189
	c-0.752-0.297-1.512-0.577-2.281-0.839c-0.172-0.059-0.343-0.122-0.516-0.179c-0.058-0.019-0.115-0.041-0.173-0.06
	c-0.785-0.254-1.575-0.486-2.367-0.704c-0.346-0.095-0.695-0.179-1.044-0.267c-0.586-0.148-1.173-0.287-1.762-0.416
	c-0.315-0.068-0.629-0.137-0.945-0.199c-0.906-0.18-1.814-0.344-2.721-0.475l-1.084-0.153c-0.603-0.084-1.235-0.173-1.819-0.261
	c-0.016-0.819-0.018-1.736-0.018-2.554h13.582c59.635,0,108.752-45.859,113.959-104.163c8.439-1.105,16.333-5.13,22.168-11.437
	l0.001-0.001c6.278-6.787,9.736-15.619,9.736-24.868C442.809,248.322,429.116,233.032,411.368,230.504z M268.476,412.24
	c-11.091,4.253-20.534,1.74-25.431-0.303c0.076-1.212,0.094-2.506,0.097-3.9h25.217C268.362,409.549,268.382,410.941,268.476,412.24
	z M195.417,461.822c0.001-9.158,3.428-17.932,9.407-24.669v59.842h-9.407V461.822z M219.828,496.995v-70.047
	c0.235-0.086,0.468-0.178,0.705-0.259c0.132-0.045,0.263-0.093,0.396-0.136c0.117-0.039,0.237-0.069,0.355-0.107
	c0.656-0.207,1.314-0.402,1.974-0.573c0.156-0.04,0.314-0.073,0.471-0.111c0.567-0.14,1.134-0.269,1.7-0.381
	c0.087-0.017,0.175-0.029,0.261-0.045v9.97c0,4.143,3.358,7.502,7.502,7.502s7.502-3.359,7.502-7.502v-8.271
	c4.159,1.382,9.482,2.559,15.605,2.559c4.465,0,9.353-0.633,14.505-2.258v69.66h-30.11v-7.672c0-4.143-3.358-7.502-7.502-7.502
	s-7.502,3.359-7.502,7.502v7.672h-5.862V496.995z M285.809,496.995v-71.66c0.084,0.016,0.169,0.027,0.253,0.043
	c0.572,0.113,1.144,0.244,1.717,0.384c0.154,0.038,0.309,0.069,0.462,0.109c0.647,0.168,1.292,0.359,1.934,0.561
	c0.13,0.041,0.262,0.075,0.392,0.118c0.138,0.045,0.274,0.095,0.411,0.142c0.233,0.08,0.462,0.171,0.693,0.255v70.047
	L285.809,496.995L285.809,496.995z M316.084,461.822v35.174h-9.407v-59.843C312.655,443.891,316.083,452.664,316.084,461.822z
	 M100.041,287.594c-9.127-2.533-15.845-10.915-15.845-20.839c0-9.922,6.718-18.305,15.845-20.838V287.594z M296.945,392.22h-82.389
	c-54.82,0-99.419-44.599-99.419-99.418v-60.939c7.712-1.722,20.282-5.463,34.174-13.348c20.504-11.638,47.985-34.916,62.464-79.726
	c1.647-5.096,6.426-8.519,11.894-8.519h64.165c5.468,0,10.246,3.423,11.894,8.518c2.02,6.251,4.37,12.324,6.99,18.051
	c1.725,3.767,6.171,5.426,9.943,3.701c3.768-1.724,5.425-6.175,3.701-9.943c-2.378-5.198-4.517-10.722-6.357-16.422
	c-3.655-11.31-14.172-18.909-26.171-18.909h-64.165c-11.999,0-22.516,7.599-26.171,18.909
	c-10.352,32.037-28.858,55.91-55.004,70.955c-11.278,6.489-21.647,9.864-28.465,11.566v-77.753c0-19.939,7.925-39.059,21.743-52.46
	c11.956-11.593,26.683-18.696,43.774-21.112c7.731-1.093,14.761-3.668,20.892-7.652c10.769-7,17.346-16.13,19.302-26.486
	c1.598,0.978,3.281,2.062,4.981,3.235c8.041,5.553,18.132,5.8,26.335,0.644c5.406-3.397,9.262-8.644,11.108-14.688
	c4.217,2.695,9.295,6.069,14.431,9.785c22.1,15.993,45.822,27.248,70.504,33.449c9.546,2.398,27.421,9.424,39.888,29.53
	c6.863,11.066,10.49,24.228,10.49,38.058v85.437c-10.427-2.615-29.156-9.152-46.889-24.758c-3.112-2.737-7.854-2.436-10.588,0.676
	c-2.738,3.11-2.436,7.85,0.675,10.588c21.547,18.961,44.099,26.1,55.693,28.678V292.8
	C396.363,347.621,351.764,392.22,296.945,392.22z M422.058,281.435c-2.793,3.019-6.266,5.123-10.1,6.173v-41.69
	c9.127,2.533,15.846,10.915,15.846,20.839C427.804,272.216,425.764,277.429,422.058,281.435z"/>
<g>
</g>
<g>
</g>
<g>
</g>
<g>
</g>
<g>
</g>
<g>
</g>
<g>
</g>
<g>
</g>
<g>
</g>
<g>
</g>
<g>
</g>
<g>
</g>
<g>
</g>
<g>
</g>
<g>
</g>
</svg>
