<?xml version="1.0" encoding="iso-8859-1"?>
<!-- Generator: Adobe Illustrator 19.0.0, SVG Export Plug-In . SVG Version: 6.00 Build 0)  -->
<svg version="1.1" id="Capa_1" xmlns="http://www.w3.org/2000/svg" xmlns:xlink="http://www.w3.org/1999/xlink" x="0px" y="0px"
	 viewBox="0 0 512 512" style="enable-background:new 0 0 512 512;" xml:space="preserve">
<path style="fill:#F3D1BB;" d="M323.747,504.502v-42.648c0-14.24-6.987-27.867-18.535-36.197c-5.835-4.209-12.67-6.966-19.796-7.969
	c-9.239-1.301-9.363-1.02-9.363-10.695c0-0.026,0-6.384,0-6.384H235.86c0,0,0,6.358,0,6.384c0,9.675-0.123,9.395-9.363,10.695
	c-7.126,1.003-13.96,3.76-19.795,7.969c-11.548,8.33-18.535,21.957-18.535,36.197v42.648H323.747z"/>
<path style="fill:#33A2D8;" d="M323.743,461.857v42.646H188.171v-42.646c0-14.243,6.981-27.869,18.527-36.195
	c3.729-2.69,7.865-4.784,12.227-6.207c2.463-0.805,5.003-1.399,7.576-1.766c3.768-0.532,6.019-0.789,7.364-1.579l1.727,0.383
	l4.354,2.463c9.842,5.581,21.874,5.621,31.755,0.109l4.62-2.572l1.727-0.383c1.344,0.789,3.596,1.047,7.364,1.579
	c2.572,0.367,5.113,0.961,7.576,1.766c4.362,1.422,8.498,3.518,12.227,6.207C316.763,433.987,323.743,447.613,323.743,461.857z"/>
<path style="fill:#F3D1BB;" d="M105.198,122.649v115.167h-1.071c-16.074,0-29.105,13.03-29.105,29.105l0,0
	c0,16.074,13.031,29.105,29.105,29.105h1.122c1.678,57.642,48.929,103.856,106.977,103.856h82.472
	c59.109,0,107.027-47.918,107.027-107.027V122.649H105.198z"/>
<path style="fill:#E8C0A8;" d="M403.289,238.816h-1.562V122.649h-42.313v170.2c0,59.116-47.909,107.026-107.026,107.026H294.7
	c57.705,0,104.743-45.67,106.937-102.85h1.65c8.446,0,16.052-3.598,21.368-9.344c4.802-5.19,7.737-12.133,7.737-19.76l0,0
	C432.394,251.846,419.364,238.816,403.289,238.816z"/>
<g>
	<path style="fill:#603813;" d="M252.596,289.26c-37.47,33.624-146.863,5.352-146.863,5.352v56.796
		c0,66.015,53.515,119.53,119.53,119.53h28.127h28.127c66.015,0,119.53-53.515,119.53-119.53v-56.796
		c0,0-104.173,28.272-141.643-5.352C257.452,287.509,254.548,287.509,252.596,289.26z"/>
	<path style="fill:#603813;" d="M251.629,298.217c1.905-9.603-7.627-17.711-16.714-14.069c-5.386,2.158-10.728,5.979-13.788,12.705
		c0,0-5.787,16.254-22.426,21.454C198.701,318.306,244.903,332.111,251.629,298.217z"/>
	<path style="fill:#603813;" d="M260.371,298.217c-1.905-9.603,7.627-17.711,16.714-14.069c5.386,2.158,10.728,5.979,13.788,12.705
		c0,0,5.787,16.254,22.426,21.454C313.298,318.306,267.098,332.111,260.371,298.217z"/>
</g>
<g>
	<circle style="fill:#E8979F;" cx="166.878" cy="274.692" r="15.946"/>
	<circle style="fill:#E8979F;" cx="340.047" cy="274.692" r="15.946"/>
</g>
<path style="fill:#603813;" d="M449.909,93.872c-0.762-10.47-5.77-20.323-14.153-26.641c-7.408-5.583-18.312-9.304-33.659-4.892
	c-4.045-30.314-34.138-45.987-34.138-45.987c-79.063-38.16-230.602,60.252-230.602,60.252c-30.662-22.04-49.954-17.847-61.198-9.372
	c-8.383,6.318-13.392,16.172-14.153,26.641C56.008,176.304,105.198,220.4,105.198,220.4c24.204-26.467,33.463-57.005,36.189-83.115
	c128.704,45.142,199.871,11.466,228.414-9.403c1.402,27.95,9.74,62.8,36.916,92.518C406.717,220.4,455.907,176.304,449.909,93.872z"
	/>
<path style="fill:#4F2B0E;" d="M406.722,220.407c-10.283-11.248-17.876-23.245-23.419-35.309
	c9.092-20.608,16.149-48.271,13.658-82.563c-0.763-10.457-5.771-20.313-14.153-26.633c-6.37-4.795-15.308-8.218-27.424-6.298
	c-3.375,0.534-6.609-1.578-7.486-4.88C340.948,38.538,315,25.021,315,25.021c-13.738-6.628-29.672-9.145-46.624-8.757
	c35.671-9.922,72.024-13.202,99.582,0.094c0,0,30.087,15.667,34.145,45.981c15.344-4.419,26.244-0.696,33.649,4.887
	c8.382,6.32,13.39,16.175,14.153,26.646C455.903,176.3,406.722,220.407,406.722,220.407z"/>
<path d="M365.086,437.265c-2.697-3.141-7.429-3.504-10.572-0.806c-20.272,17.4-46.171,26.981-72.926,26.981h-56.256
	c-50.462,0-94.927-33.969-108.13-82.607c-1.085-3.996-5.208-6.353-9.2-5.271c-3.996,1.085-6.356,5.204-5.271,9.2
	c10.892,40.126,40.554,71.428,77.938,85.517v34.223c0,4.141,3.356,7.498,7.498,7.498h135.581c4.141,0,7.498-3.357,7.498-7.498
	v-36.177c11.915-5.058,23.074-11.94,33.035-20.489C367.422,445.141,367.782,440.407,365.086,437.265z M213.602,497.006h-17.938
	v-22.114c5.975,1.44,12.093,2.465,18.321,3.023c-0.246,0.742-0.383,1.532-0.383,2.357V497.006z M283.317,497.006h-54.72v-16.734
	c0-0.635-0.087-1.247-0.236-1.836h53.227c0.657,0,1.314-0.012,1.97-0.022c-0.152,0.595-0.242,1.215-0.242,1.858v16.734H283.317z
	 M316.251,497.006h-17.938v-16.734c0-1.018-0.205-1.988-0.573-2.874c6.273-0.804,12.46-2.074,18.511-3.791V497.006z"/>
<g>
	<path style="fill:#603813;" d="M176.982,216.196c-3.014,0-5.855-1.829-7.001-4.81c-1.484-3.865,0.444-8.202,4.309-9.687
		l31.532-12.116c3.867-1.487,8.203,0.445,9.688,4.31c1.484,3.865-0.444,8.202-4.309,9.687l-31.532,12.116
		C178.786,216.035,177.875,216.196,176.982,216.196z"/>
	<path style="fill:#603813;" d="M334.93,216.196c-0.893,0-1.803-0.161-2.688-0.501l-31.532-12.116
		c-3.865-1.485-5.794-5.822-4.309-9.687c1.483-3.865,5.819-5.797,9.688-4.31l31.532,12.116c3.865,1.485,5.794,5.822,4.309,9.687
		C340.785,214.366,337.944,216.196,334.93,216.196z"/>
</g>
<path d="M211.217,270.282c-4.141,0-7.498-3.357-7.498-7.498v-23.308c0-4.141,3.356-7.498,7.498-7.498
	c4.141,0,7.498,3.357,7.498,7.498v23.308C218.715,266.925,215.358,270.282,211.217,270.282z"/>
<path d="M300.695,270.282c-4.141,0-7.498-3.357-7.498-7.498v-23.308c0-4.141,3.356-7.498,7.498-7.498
	c4.142,0,7.498,3.357,7.498,7.498v23.308C308.192,266.925,304.836,270.282,300.695,270.282z"/>
<path d="M409.265,231.814v-4.351c0.896-0.317,1.747-0.807,2.499-1.48c2.12-1.9,51.86-47.531,45.666-132.655l0,0
	c-0.938-12.897-7.178-24.592-17.119-32.085c-6.639-5.003-17.329-9.977-32.361-7.82c-7.931-28.546-35.227-43.067-36.485-43.722
	c-0.068-0.035-0.136-0.069-0.205-0.102C336.461-7.197,285.631-1.933,220.176,25.243c-39.133,16.248-71.302,35.383-82.584,42.374
	c-32.481-21.648-53.685-15.582-65.904-6.373c-9.94,7.493-16.18,19.187-17.118,32.084c-5.477,75.278,32.781,119.663,43.173,130.24
	v7.321c-17.148,3.03-30.218,18.029-30.218,36.033c0,18.201,13.356,33.337,30.782,36.133v26.508c0,4.141,3.356,7.498,7.498,7.498
	c4.141,0,7.498-3.357,7.498-7.498V304.11c11.179,2.491,31.059,6.38,53.019,8.171c9.625,0.785,18.579,1.066,26.902,0.883
	c-1.296,1.371-2.072,3.208-2.06,5.189c0.021,3.297,2.192,6.193,5.35,7.137c0.681,0.203,10.501,3.071,22.245,3.071
	c8.112,0,17.141-1.368,24.708-5.927c5.561-3.351,9.736-7.969,12.492-13.778c2.756,5.809,6.931,10.427,12.493,13.778
	c7.568,4.559,16.596,5.927,24.709,5.927c11.742,0,21.564-2.868,22.245-3.071c3.158-0.943,5.33-3.84,5.35-7.137
	c0.012-1.955-0.748-3.769-2.014-5.135c6.874-0.004,14.15-0.307,21.863-0.936c21.96-1.79,41.84-5.68,53.019-8.171v47.297
	c0,16.075-3.33,31.589-9.898,46.112c-1.705,3.773-0.03,8.215,3.743,9.921c1.001,0.453,2.051,0.668,3.084,0.668
	c2.856,0,5.583-1.639,6.837-4.41c7.452-16.478,11.23-34.071,11.23-52.291v-47.286c8.204-1.215,15.855-5.198,21.546-11.349
	l0.001-0.001c6.274-6.783,9.73-15.609,9.73-24.852C439.892,249.774,426.614,234.676,409.265,231.814z M87.988,184.479
	c-10.06-18.581-21.429-49.288-18.462-90.063c0.624-8.583,4.702-16.309,11.189-21.198c3.855-2.906,9.165-5.247,16.266-5.247
	c8.948,0,20.741,3.721,36.043,14.72c2.509,1.802,5.868,1.882,8.459,0.201c0.375-0.243,38.026-24.552,84.648-43.884
	c42.051-17.439,100.192-34.35,138.484-15.966c1.597,0.863,26.697,14.841,30.092,40.288c0.289,2.161,1.504,4.09,3.329,5.284
	c1.826,1.194,4.08,1.532,6.174,0.93c10.663-3.068,19.774-1.829,27.075,3.674c6.486,4.889,10.564,12.615,11.189,21.198l0,0
	c2.945,40.464-8.244,70.993-18.148,89.479c-6.282,11.726-12.865,20.247-17.289,25.339c-18.122-22.407-28.107-49.859-29.707-81.729
	c-0.138-2.753-1.774-5.207-4.263-6.392c-2.488-1.185-5.425-0.91-7.65,0.716c-13.629,9.965-37.406,22.927-73.288,28.087
	c-43.314,6.226-93.18-0.402-148.219-19.706c-2.162-0.758-4.556-0.487-6.493,0.741c-1.936,1.227-3.206,3.274-3.444,5.554
	c-2.936,28.099-12.691,52.53-29.024,72.738C100.619,204.267,94.214,195.978,87.988,184.479z M82.519,266.92
	c0-9.69,6.418-17.896,15.223-20.627v41.254C88.938,284.816,82.519,276.611,82.519,266.92z M244.232,296.758
	c-1.197,6.03-3.97,10.288-8.477,13.014c-4.61,2.788-10.644,3.751-16.5,3.801c5.501-6.067,8.11-12.183,8.744-13.812
	c1.863-3.964,5.026-6.796,9.662-8.654c2.338-0.94,4.146,0.25,4.815,0.805C243.024,292.366,244.768,294.059,244.232,296.758z
	 M276.16,309.772c-4.508-2.727-7.282-6.984-8.478-13.014c-0.535-2.7,1.208-4.392,1.756-4.846c0.669-0.554,2.478-1.743,4.816-0.805
	c4.636,1.857,7.799,4.69,9.662,8.654c0.634,1.629,3.243,7.745,8.744,13.811C286.805,313.523,280.769,312.56,276.16,309.772z
	 M299.252,297.153c-0.919-1.668-1.349-2.792-1.358-2.816c-0.071-0.2-0.15-0.397-0.238-0.589c-3.429-7.535-9.591-13.261-17.824-16.56
	c-0.753-0.302-1.519-0.547-2.292-0.751c0.654-3.283-0.955-6.714-4.113-8.224c-3.736-1.784-8.212-0.204-9.997,3.532
	c-1.342,2.808-4.218,4.622-7.327,4.622c-3.269,0-6.201-1.945-7.476-4.956c-1.612-3.814-6.012-5.598-9.825-3.985
	c-3.531,1.493-5.316,5.375-4.281,8.97c-0.822,0.21-1.635,0.471-2.436,0.791c-8.233,3.299-14.395,9.025-17.824,16.56
	c-0.088,0.193-0.167,0.389-0.238,0.589c-0.011,0.032-0.323,0.85-0.981,2.121c-32.661,5.03-76.229-2.098-99.693-7.688l-0.611-65.541
	c18.576-21.147,30.317-46.621,34.938-75.898c53.918,17.803,103.193,23.667,146.589,17.427c30.843-4.435,53.607-14.301,69.196-23.664
	c3.539,28.813,14.048,54.766,30.809,76.134l-0.202,71.425C371.976,293.968,331.425,300.752,299.252,297.153z M419.155,282.589
	c-2.741,2.963-6.139,5.038-9.89,6.106v-41.533c9.016,2.599,15.633,10.917,15.633,20.759
	C424.897,273.376,422.858,278.586,419.155,282.589z"/>
<g>
</g>
<g>
</g>
<g>
</g>
<g>
</g>
<g>
</g>
<g>
</g>
<g>
</g>
<g>
</g>
<g>
</g>
<g>
</g>
<g>
</g>
<g>
</g>
<g>
</g>
<g>
</g>
<g>
</g>
</svg>
