<?xml version="1.0" encoding="utf-8"?>
<!-- Generator: Adobe Illustrator 21.1.0, SVG Export Plug-In . SVG Version: 6.00 Build 0)  -->
<svg version="1.1"
	 id="Слой_1" xmlns:cc="http://creativecommons.org/ns#" xmlns:dc="http://purl.org/dc/elements/1.1/" xmlns:inkscape="http://www.inkscape.org/namespaces/inkscape" xmlns:rdf="http://www.w3.org/1999/02/22-rdf-syntax-ns#" xmlns:sodipodi="http://sodipodi.sourceforge.net/DTD/sodipodi-0.dtd" xmlns:svg="http://www.w3.org/2000/svg"
	 xmlns="http://www.w3.org/2000/svg" xmlns:xlink="http://www.w3.org/1999/xlink" x="0px" y="0px" viewBox="0 0 100 97.9"
	 style="enable-background:new 0 0 100 97.9;" xml:space="preserve">
<g transform="translate(0,-952.36218)">
	<path d="M50,955.6c-25.4,0-46,20.6-46,46c0,25.4,20.6,46,46,46s46-20.6,46-46C96,976.3,75.4,955.6,50,955.6z M50,959.6
		c23.2,0,42,18.8,42,42c0,23.2-18.8,42-42,42s-42-18.8-42-42C8,978.4,26.8,959.6,50,959.6z M49.8,976.6c-1,0.1-1.8,1-1.8,2v21H27
		c-0.1,0-0.1,0-0.2,0c-1.1,0.1-2,1-1.9,2.1c0.1,1.1,1,2,2.1,1.9h21v21c0,1.1,0.9,2,2,2c1.1,0,2-0.9,2-2c0,0,0,0,0-0.1v-21h21
		c1.1,0,2-0.9,2-2c0-1.1-0.9-2-2-2c0,0,0,0-0.1,0H52v-21c0-1.1-0.9-2-2-2C50,976.6,49.9,976.6,49.8,976.6z"/>
</g>
</svg>
