<?xml version="1.0"?>
<svg xmlns="http://www.w3.org/2000/svg" id="Layer_1" data-name="Layer 1" viewBox="0 0 64 64" width="64px" height="64px"><title>Dusk Part 3</title><path d="M5,32.5A27.63,27.63,0,0,1,5.55,27C5.94,25.08,3,21.9,3,20c0-3,1.56-8.17,3-10,2.23-2.83,4.84-4.23,8-6,3-1.67,10,0,14.86,1.24C30,5.53,31.27,5,32.5,5A27.5,27.5,0,0,1,60,32.5c0,1.9-.81,3.73-.56,5.54C60,42,62.2,48.93,60,52s-7.74,7.05-11,9c-2.66,1.59-8,0-11.17-1.52-1.59-.76-3.51.52-5.33.52A27.5,27.5,0,0,1,5,32.5Z" style="fill:#85cbf8;"/><path d="M46.5,45.34a10.24,10.24,0,0,0,1.94-6.08,9.63,9.63,0,0,0-1.13-4.81,9.4,9.4,0,0,0-3.12-3.24,19.7,19.7,0,0,0-4.73-2.13c-1.84-.58-3.9-1.11-6.1-1.58-1.8-.41-3.09-.72-3.85-.93a12.13,12.13,0,0,1-2.22-.85,4.89,4.89,0,0,1-1.66-1.25,2.34,2.34,0,0,1-.55-1.57,3.11,3.11,0,0,1,1.72-2.62,8.74,8.74,0,0,1,4.79-1.16,7.88,7.88,0,0,1,4.62,1,9.18,9.18,0,0,1,2.5,3.07,8.87,8.87,0,0,0,1.63,2.13,3.51,3.51,0,0,0,2.38.73,3.85,3.85,0,0,0,2.84-1.17,3.73,3.73,0,0,0,1.14-2.64,6.51,6.51,0,0,0-.87-3.11,9.84,9.84,0,0,0-2.69-3A14.28,14.28,0,0,0,38.58,14a22.19,22.19,0,0,0-6.46-.84A23.79,23.79,0,0,0,24,14.37,11.62,11.62,0,0,0,18.64,18a8.76,8.76,0,0,0-1.88,5.52A8.46,8.46,0,0,0,18.55,29a11.92,11.92,0,0,0,4.75,3.42,40.76,40.76,0,0,0,7.26,2.14c2.07.43,3.77.84,5.06,1.24a7.76,7.76,0,0,1,3,1.61A3.34,3.34,0,0,1,39.65,40a4,4,0,0,1-2.05,3.41A9.85,9.85,0,0,1,32,44.87a9.81,9.81,0,0,1-4-.7,6.16,6.16,0,0,1-2.33-1.78,13.5,13.5,0,0,1-1.58-2.77,6.27,6.27,0,0,0-1.63-2.34A3.69,3.69,0,0,0,20,36.45a4.09,4.09,0,0,0-2.89,1.06A3.45,3.45,0,0,0,16,40.08,8.58,8.58,0,0,0,17.77,45a12.85,12.85,0,0,0,4.56,4,21.35,21.35,0,0,0,9.9,2,22.8,22.8,0,0,0,8.64-1.5A12.54,12.54,0,0,0,46.5,45.34Z" style="fill:#faefde;"/><path d="M44.73,30.36a20.66,20.66,0,0,0-5-2.24c-1.88-.59-4-1.13-6.19-1.6-1.77-.4-3-.71-3.79-.92a11.13,11.13,0,0,1-2-.78,4,4,0,0,1-1.33-1,1.36,1.36,0,0,1-.32-.94c0-.41.13-1,1.26-1.78a7.78,7.78,0,0,1,4.25-1c2.39,0,3.5.46,4,.85a8.16,8.16,0,0,1,2.22,2.74,9.91,9.91,0,0,0,1.85,2.41,4.47,4.47,0,0,0,3,1,4.84,4.84,0,0,0,3.55-1.47,4.71,4.71,0,0,0,1.42-3.33,7.51,7.51,0,0,0-1-3.59,10.82,10.82,0,0,0-3-3.3A15.26,15.26,0,0,0,38.88,13a23.14,23.14,0,0,0-6.75-.88,24.79,24.79,0,0,0-8.46,1.32,12.6,12.6,0,0,0-5.82,4,9.74,9.74,0,0,0-2.09,6.13,9.43,9.43,0,0,0,2,6.1,12.9,12.9,0,0,0,5.14,3.72,41.73,41.73,0,0,0,7.44,2.2c2,.42,3.73.83,5,1.21a6.78,6.78,0,0,1,2.57,1.39A2.35,2.35,0,0,1,38.65,40,3,3,0,0,1,37,42.61a8.89,8.89,0,0,1-5,1.26,8.86,8.86,0,0,1-3.59-.61,5.17,5.17,0,0,1-2-1.48A12.54,12.54,0,0,1,25,39.22a7.25,7.25,0,0,0-1.9-2.7A4.66,4.66,0,0,0,20,35.45a5.05,5.05,0,0,0-3.57,1.33A4.42,4.42,0,0,0,15,40.08a9.56,9.56,0,0,0,2,5.5,13.84,13.84,0,0,0,4.91,4.3A22.32,22.32,0,0,0,32.23,52a23.78,23.78,0,0,0,9-1.58,13.52,13.52,0,0,0,6.06-4.55,11.22,11.22,0,0,0,2.12-6.67,10.61,10.61,0,0,0-1.26-5.3A10.38,10.38,0,0,0,44.73,30.36Zm1,14.4a11.56,11.56,0,0,1-5.19,3.86A21.81,21.81,0,0,1,32.23,50a20.38,20.38,0,0,1-9.44-1.93,11.86,11.86,0,0,1-4.21-3.68A7.62,7.62,0,0,1,17,40.08a2.41,2.41,0,0,1,.84-1.84A3.07,3.07,0,0,1,20,37.45a2.71,2.71,0,0,1,1.79.6,5.31,5.31,0,0,1,1.35,2,14.47,14.47,0,0,0,1.71,3,7.13,7.13,0,0,0,2.7,2.07,10.65,10.65,0,0,0,4.44.8,10.83,10.83,0,0,0,6.13-1.6A5,5,0,0,0,40.65,40a4.35,4.35,0,0,0-1.39-3.32,8.76,8.76,0,0,0-3.34-1.83c-1.32-.4-3.06-.83-5.16-1.26a39.67,39.67,0,0,1-7.07-2.08,10.93,10.93,0,0,1-4.36-3.13,7.48,7.48,0,0,1-1.57-4.84,7.79,7.79,0,0,1,1.67-4.9,10.65,10.65,0,0,1,4.92-3.35,22.82,22.82,0,0,1,7.77-1.2,21.16,21.16,0,0,1,6.16.8A13.3,13.3,0,0,1,42.54,17,8.83,8.83,0,0,1,45,19.65a5.54,5.54,0,0,1,.75,2.63,2.68,2.68,0,0,1-.85,1.94,2.81,2.81,0,0,1-2.12.87A2.61,2.61,0,0,1,41,24.61a7.91,7.91,0,0,1-1.43-1.89,10,10,0,0,0-2.76-3.36c-1.12-.84-2.83-1.25-5.22-1.25a9.7,9.7,0,0,0-5.33,1.33,4.08,4.08,0,0,0-2.17,3.46,3.35,3.35,0,0,0,.78,2.22,5.89,5.89,0,0,0,2,1.5,13.05,13.05,0,0,0,2.41.92c.77.21,2.08.53,3.89.94,2.18.46,4.21,1,6,1.55a18.76,18.76,0,0,1,4.5,2,8.42,8.42,0,0,1,2.79,2.9,8.66,8.66,0,0,1,1,4.31A9.26,9.26,0,0,1,45.68,44.76Z" style="fill:#8d6c9f;"/><path d="M60.53,38.34a1,1,0,0,1-.08-.63A28.13,28.13,0,0,0,61,32.3,28.5,28.5,0,0,0,32.31,4a29.24,29.24,0,0,0-4.18.3,1,1,0,0,1-.66-.13A17.2,17.2,0,0,0,19,2,17,17,0,0,0,2,18.82a16.46,16.46,0,0,0,2,7.85,1,1,0,0,1,.11.67A28.26,28.26,0,0,0,32.31,60.58a29.42,29.42,0,0,0,4.6-.36,1,1,0,0,1,.6.09A17.08,17.08,0,0,0,62,45.18a16.5,16.5,0,0,0-1.47-6.85ZM45,60a15.09,15.09,0,0,1-6.58-1.49,3,3,0,0,0-1.31-.3,2.9,2.9,0,0,0-.47,0,27.54,27.54,0,0,1-4.29.34A26.5,26.5,0,0,1,5.64,32.3a26.23,26.23,0,0,1,.41-4.6,3,3,0,0,0-.32-2A14.48,14.48,0,0,1,4,18.82,15,15,0,0,1,19,4a15.21,15.21,0,0,1,7.44,1.94,3,3,0,0,0,1.93.37A27.33,27.33,0,0,1,32.31,6,26.5,26.5,0,0,1,59,32.3a26.1,26.1,0,0,1-.48,5,3,3,0,0,0,.22,1.84,14.52,14.52,0,0,1,1.29,6A15,15,0,0,1,45,60Z" style="fill:#8d6c9f;"/><path d="M55.6,10a1,1,0,0,0,.71-.29l1.41-1.41a1,1,0,0,0-1.41-1.41L54.9,8.27A1,1,0,0,0,55.6,10Z" style="fill:#8d6c9f;"/><path d="M51.07,6.75a1,1,0,0,0,1.37-.37l1-1.73a1,1,0,1,0-1.73-1l-1,1.73A1,1,0,0,0,51.07,6.75Z" style="fill:#8d6c9f;"/><path d="M63.55,16.94a1,1,0,0,0-1.22-.71l-1.93.52a1,1,0,1,0,.52,1.93l1.93-.52A1,1,0,0,0,63.55,16.94Z" style="fill:#8d6c9f;"/><path d="M46.6,4.9a1,1,0,0,0,1.22-.71l.52-1.93a1,1,0,1,0-1.93-.52L45.9,3.67A1,1,0,0,0,46.6,4.9Z" style="fill:#8d6c9f;"/><path d="M57.84,13.52a1,1,0,0,0,1.37.37l1.73-1a1,1,0,1,0-1-1.73l-1.73,1A1,1,0,0,0,57.84,13.52Z" style="fill:#8d6c9f;"/><path d="M8.13,54,6.72,55.45a1,1,0,1,0,1.41,1.41l1.41-1.42A1,1,0,0,0,8.13,54Z" style="fill:#8d6c9f;"/><path d="M13.38,57a1,1,0,0,0-1.37.37l-1,1.73a1,1,0,0,0,1.73,1l1-1.73A1,1,0,0,0,13.38,57Z" style="fill:#8d6c9f;"/><path d="M4.76,45.74A1,1,0,0,0,3.54,45l-1.93.52a1,1,0,1,0,.52,1.93L4.05,47A1,1,0,0,0,4.76,45.74Z" style="fill:#8d6c9f;"/><path d="M17.84,58.82a1,1,0,0,0-1.22.71l-.52,1.93A1,1,0,1,0,18,62L18.55,60A1,1,0,0,0,17.84,58.82Z" style="fill:#8d6c9f;"/><path d="M6.61,50.2a1,1,0,0,0-1.37-.37l-1.73,1a1,1,0,0,0,1,1.73l1.73-1A1,1,0,0,0,6.61,50.2Z" style="fill:#8d6c9f;"/><path d="M19,8a11,11,0,0,1,2.65.32l.24,0a1,1,0,0,0,.24-2A13,13,0,0,0,19,6a1,1,0,0,0,0,2Z" style="fill:#8d6c9f;"/><path d="M16,7.34a1,1,0,0,0-1.27-.61,13.08,13.08,0,0,0-7.52,6.84A1,1,0,1,0,9,14.4a11.07,11.07,0,0,1,6.36-5.79A1,1,0,0,0,16,7.34Z" style="fill:#8d6c9f;"/></svg>
