<?xml version="1.0" encoding="iso-8859-1"?>
<!-- Generator: Adobe Illustrator 19.0.0, SVG Export Plug-In . SVG Version: 6.00 Build 0)  -->
<svg version="1.1" id="Capa_1" xmlns="http://www.w3.org/2000/svg" xmlns:xlink="http://www.w3.org/1999/xlink" x="0px" y="0px"
	 viewBox="0 0 496.496 496.496" style="enable-background:new 0 0 496.496 496.496;" xml:space="preserve">
<circle style="fill:#FFCB57;" cx="248.248" cy="270.808" r="112"/>
<g>
	<path style="fill:#3F3A34;" d="M248.248,150.808c-66.168,0-120,53.832-120,120s53.832,120,120,120s120-53.832,120-120
		S314.416,150.808,248.248,150.808z M248.248,374.808c-57.344,0-104-46.656-104-104s46.656-104,104-104s104,46.656,104,104
		S305.592,374.808,248.248,374.808z"/>
	<path style="fill:#3F3A34;" d="M272.248,232.28v-17.472h-16v16h-16v-16h-16v16h-16v80h16v16h16v-16h16v16h16v-17.472
		c9.288-3.312,16-12.112,16-22.528c0-6.144-2.32-11.752-6.128-16c3.808-4.248,6.128-9.856,6.128-16
		C288.248,244.392,281.536,235.592,272.248,232.28z M264.248,294.808h-40v-16h40c4.408,0,8,3.584,8,8
		S268.656,294.808,264.248,294.808z M264.248,262.808h-40v-16h40c4.408,0,8,3.592,8,8
		C272.248,259.224,268.656,262.808,264.248,262.808z"/>
	<path style="fill:#3F3A34;" d="M248.248,198.808c16.56,0,32.744,5.776,45.552,16.256l10.136-12.384
		c-15.664-12.816-35.44-19.872-55.688-19.872c-48.52,0-88,39.48-88,88c0,20.248,7.056,40.024,19.872,55.688l12.384-10.144
		c-10.48-12.8-16.256-28.984-16.256-45.544C176.248,231.112,208.552,198.808,248.248,198.808z"/>
	<path style="fill:#3F3A34;" d="M316.376,215.12l-12.384,10.136c10.48,12.808,16.256,28.992,16.256,45.552c0,39.704-32.304,72-72,72
		c-16.56,0-32.744-5.776-45.552-16.256l-10.136,12.376c15.664,12.816,35.44,19.88,55.688,19.88c48.52,0,88-39.48,88-88
		C336.248,250.56,329.192,230.784,316.376,215.12z"/>
</g>
<g>
	<polygon style="fill:#E56565;" points="304.248,142.808 288.248,142.808 288.248,110.808 312,110.808 248.248,27.928 
		184.496,110.808 208.248,110.808 208.248,142.808 192.248,142.808 192.248,126.808 152,126.808 248.248,1.688 344.496,126.808 
		304.248,126.808 	"/>
	<rect x="344.248" y="462.808" style="fill:#E56565;" width="16" height="32"/>
	<polygon style="fill:#E56565;" points="456.248,462.808 440.248,462.808 440.248,406.808 464,406.808 400.248,323.928 
		336.496,406.808 360.248,406.808 360.248,446.808 344.248,446.808 344.248,422.808 304,422.808 400.248,297.688 496.496,422.808 
		456.248,422.808 	"/>
	<rect x="440.248" y="478.808" style="fill:#E56565;" width="16" height="16"/>
	<polygon style="fill:#E56565;" points="440.248,278.808 424.248,278.808 424.248,214.808 448,214.808 384.248,131.928 
		347.512,179.688 334.832,169.928 384.248,105.688 480.496,230.808 440.248,230.808 	"/>
	<rect x="424.248" y="294.808" style="fill:#E56565;" width="16" height="16"/>
	<rect x="136.248" y="478.808" style="fill:#E56565;" width="16" height="16"/>
	<polygon style="fill:#E56565;" points="152.248,462.808 136.248,462.808 136.248,406.808 160,406.808 96.248,323.928 
		32.496,406.808 56.248,406.808 56.248,438.808 40.248,438.808 40.248,422.808 0,422.808 96.248,297.688 192.496,422.808 
		152.248,422.808 	"/>
	<rect x="40.248" y="454.808" style="fill:#E56565;" width="16" height="40"/>
	<polygon style="fill:#E56565;" points="72.248,246.808 56.248,246.808 56.248,230.808 16,230.808 112.248,105.688 161.664,169.928 
		148.984,179.688 112.248,131.928 48.496,214.808 72.248,214.808 	"/>
	<rect x="56.248" y="262.808" style="fill:#E56565;" width="16" height="16"/>
	<rect x="288.248" y="406.808" style="fill:#E56565;" width="16" height="88"/>
	<rect x="192.248" y="406.808" style="fill:#E56565;" width="16" height="56"/>
	<rect x="192.248" y="478.808" style="fill:#E56565;" width="16" height="16"/>
</g>
<g>
</g>
<g>
</g>
<g>
</g>
<g>
</g>
<g>
</g>
<g>
</g>
<g>
</g>
<g>
</g>
<g>
</g>
<g>
</g>
<g>
</g>
<g>
</g>
<g>
</g>
<g>
</g>
<g>
</g>
</svg>
