<?xml version="1.0" encoding="iso-8859-1"?>
<!-- Generator: Adobe Illustrator 19.0.0, SVG Export Plug-In . SVG Version: 6.00 Build 0)  -->
<svg version="1.1" id="Capa_1" xmlns="http://www.w3.org/2000/svg" xmlns:xlink="http://www.w3.org/1999/xlink" x="0px" y="0px"
	 viewBox="0 0 468.294 468.294" style="enable-background:new 0 0 468.294 468.294;" xml:space="preserve">
<path style="fill:#D5D6DB;" d="M453.85,156.947v287.856c0,12.958-10.505,23.463-23.463,23.463h-27.482l18.169-17.597V215.732
	c0-9.719-7.878-17.597-17.597-17.597H50.026c-2.036,0-4.004-0.122-5.904-0.487c-17.168-2.494-30.197-15.813-30.197-31.869
	c0-0.73,0-1.46,0.136-2.129c0.543-8.028,4.478-15.326,10.45-20.678c6.515-5.9,15.539-9.488,25.515-9.488h380.361
	C443.345,133.484,453.85,143.988,453.85,156.947z"/>
<path style="fill:#44C4A1;" d="M60.257,175.447c-0.117,0.578-0.117,1.209-0.117,1.84v-1.945L60.257,175.447z"/>
<path style="fill:#27A2DB;" d="M329.921,352.856l-206.174-85.4L231.337,7.712c2.639-6.372,9.944-9.398,16.316-6.758l183.099,75.842
	c6.372,2.639,9.398,9.944,6.758,16.316L329.921,352.856z"/>
<rect x="226.268" y="12.447" transform="matrix(-0.9239 -0.3827 0.3827 -0.9239 412.6949 400.6335)" style="fill:#1C75A1;" width="39.849" height="293.65"/>
<circle style="fill:#F6C358;" cx="164.853" cy="193.687" r="92.254"/>
<circle style="fill:#FCD462;" cx="164.853" cy="193.687" r="78.723"/>
<path style="fill:#F6C358;" d="M164.894,262.565c-4.548,0-9.036-0.436-13.399-1.295l1.022-5.198
	c4.035,0.793,8.185,1.195,12.336,1.195l0.063,4.789l-0.001,0.508C164.907,262.565,164.9,262.565,164.894,262.565z M178.352,261.245
	l-1.035-5.198c4.077-0.811,8.086-2.03,11.917-3.621l2.034,4.892C187.117,259.044,182.77,260.365,178.352,261.245z M138.571,257.374
	c-4.158-1.718-8.164-3.856-11.908-6.357l2.942-4.406c3.456,2.306,7.154,4.28,10.989,5.865L138.571,257.374z M203.162,250.939
	l-2.949-4.401c3.446-2.31,6.684-4.973,9.623-7.915l3.749,3.744C210.402,245.553,206.896,248.437,203.162,250.939z M116.223,242.468
	c-3.186-3.176-6.073-6.679-8.583-10.411l4.398-2.957c2.317,3.447,4.984,6.683,7.926,9.617L116.223,242.468z M222.146,231.936
	l-4.403-2.947c2.312-3.456,4.29-7.152,5.877-10.984l4.895,2.028C226.794,224.184,224.651,228.189,222.146,231.936z M101.247,220.168
	c-1.732-4.155-3.057-8.5-3.938-12.913l5.195-1.037c0.814,4.071,2.035,8.078,3.632,11.911L101.247,220.168z M232.425,207.114
	l-5.198-1.027c0.802-4.059,1.208-8.232,1.208-12.402v-0.278h5.299v0.278C233.734,198.199,233.294,202.717,232.425,207.114z
	 M95.971,193.825v-0.14c0-4.469,0.431-8.94,1.281-13.286l5.2,1.017c-0.784,4.013-1.182,8.141-1.182,12.27L95.971,193.825z
	 M227.175,181.021c-0.823-4.068-2.053-8.072-3.66-11.902l4.887-2.049c1.741,4.151,3.075,8.492,3.965,12.904L227.175,181.021z
	 M106.036,169.489l-4.9-2.018c1.711-4.158,3.846-8.166,6.342-11.915l4.411,2.936C109.584,161.952,107.615,165.652,106.036,169.489z
	 M217.594,158.158c-2.322-3.438-4.995-6.667-7.947-9.598l3.733-3.759c3.195,3.172,6.09,6.67,8.604,10.393L217.594,158.158z
	 M119.775,148.843l-3.757-3.736c3.174-3.191,6.675-6.082,10.404-8.595l2.96,4.396C125.939,143.226,122.706,145.896,119.775,148.843z
	 M199.989,140.684c-3.466-2.303-7.168-4.268-11.003-5.842l2.013-4.903c4.156,1.708,8.168,3.837,11.922,6.331L199.989,140.684z
	 M140.347,134.997l-2.044-4.89c4.151-1.735,8.494-3.063,12.906-3.951l1.045,5.195C148.182,132.169,144.176,133.395,140.347,134.997z
	 M177.056,131.272c-3.995-0.776-8.1-1.169-12.204-1.169l-0.146-3.695l0.097-1.604c4.392,0.019,8.937,0.426,13.264,1.268
	L177.056,131.272z"/>
<path style="fill:#DC8744;" d="M181.054,193.685c5.548-4.222,8.799-10.698,8.799-17.739c0-12.324-10.027-22.351-22.351-22.351
	h-2.513v-9.225h-4.613v9.225h-5.381v-9.225h-4.613v9.225h-4.613h-5.918v9.225h5.918v26.252h-5.918v9.225h5.918v26.252h-5.918v9.225
	h5.918h4.613V243h4.613v-9.225h5.381V243h4.613v-9.225h2.513c12.324,0,22.351-10.027,22.351-22.351
	C189.853,204.383,186.602,197.907,181.054,193.685z M167.502,224.549h-12.507v-26.252h12.507c7.237,0,13.126,5.889,13.126,13.126
	S174.739,224.549,167.502,224.549z M167.502,189.072h-12.507V162.82h12.507c7.237,0,13.126,5.889,13.126,13.126
	S174.739,189.072,167.502,189.072z"/>
<path style="fill:#44C4A1;" d="M421.073,215.745v234.934c0,9.682-7.871,17.615-17.615,17.615H53.587
	c-21.926,0-39.666-17.803-39.666-39.728V165.773c0,16.054,13.056,29.359,30.171,31.857l0.437,0.5h358.928
	C413.203,198.13,421.073,206.001,421.073,215.745z"/>
<path style="fill:#3EA69B;" d="M453.85,342.52v-65.107c-2.025,7.035-11.119,17.207-45.821,20.16H360.47
	c-6.479,0-11.731,5.252-11.731,11.731V358c0,6.479,5.252,11.731,11.731,11.731h47.559C462.669,365.081,453.85,342.52,453.85,342.52z
	"/>
<circle style="fill:#64798A;" cx="381.005" cy="333.85" r="15.316"/>
<g>
	<rect x="13.919" y="243.138" style="fill:#3EA69B;" width="15.616" height="9.372"/>
	<rect x="48.28" y="243.138" style="fill:#3EA69B;" width="31.22" height="9.372"/>
	<rect x="98.256" y="243.138" style="fill:#3EA69B;" width="31.22" height="9.372"/>
	<rect x="148.419" y="243.138" style="fill:#3EA69B;" width="31.22" height="9.372"/>
	<rect x="198.371" y="243.138" style="fill:#3EA69B;" width="31.22" height="9.372"/>
	<rect x="248.322" y="243.138" style="fill:#3EA69B;" width="31.22" height="9.372"/>
	<rect x="298.523" y="243.138" style="fill:#3EA69B;" width="31.22" height="9.372"/>
	<rect x="348.474" y="243.138" style="fill:#3EA69B;" width="31.219" height="9.372"/>
	<rect x="398.612" y="243.138" style="fill:#3EA69B;" width="22.491" height="9.372"/>
	<rect x="13.919" y="414.309" style="fill:#3EA69B;" width="15.616" height="9.372"/>
	<rect x="48.28" y="414.315" style="fill:#3EA69B;" width="31.22" height="9.372"/>
	<rect x="98.256" y="414.315" style="fill:#3EA69B;" width="31.22" height="9.372"/>
	<rect x="148.419" y="414.315" style="fill:#3EA69B;" width="31.22" height="9.372"/>
	<rect x="198.371" y="414.315" style="fill:#3EA69B;" width="31.22" height="9.372"/>
	<rect x="248.322" y="414.315" style="fill:#3EA69B;" width="31.22" height="9.372"/>
	<rect x="298.523" y="414.315" style="fill:#3EA69B;" width="31.22" height="9.372"/>
	<rect x="348.474" y="414.315" style="fill:#3EA69B;" width="31.219" height="9.372"/>
	<rect x="398.612" y="414.309" style="fill:#3EA69B;" width="22.491" height="9.372"/>
</g>
<g>
</g>
<g>
</g>
<g>
</g>
<g>
</g>
<g>
</g>
<g>
</g>
<g>
</g>
<g>
</g>
<g>
</g>
<g>
</g>
<g>
</g>
<g>
</g>
<g>
</g>
<g>
</g>
<g>
</g>
</svg>
