<?xml version="1.0" encoding="iso-8859-1"?>
<!-- Generator: Adobe Illustrator 19.0.0, SVG Export Plug-In . SVG Version: 6.00 Build 0)  -->
<svg version="1.1" id="Capa_1" xmlns="http://www.w3.org/2000/svg" xmlns:xlink="http://www.w3.org/1999/xlink" x="0px" y="0px"
	 viewBox="0 0 468.293 468.293" style="enable-background:new 0 0 468.293 468.293;" xml:space="preserve">
<path style="fill:#44C4A1;" d="M290.589,404.805c-44.197,36.167-228.068,36.167-272.265,0C-37.76,358.9,49.37,195.39,86.359,132.097
	c9.168-15.744,15.238-25.292,15.238-25.292h105.656c0,0,6.07,9.548,15.238,25.292C259.48,195.39,346.673,358.9,290.589,404.805z"/>
<path style="fill:#3EA69B;" d="M245.254,38.708l-2.276,4.237l-34.713,63.861H100.649L65.936,42.944l-2.276-4.237
	c-2.972-5.438,2.845-11.444,8.409-8.662l4.173,2.15c1.834,0.885,3.92,0.885,5.691,0l19.474-9.8c1.771-0.885,3.857-0.885,5.691,0
	l19.411,9.8c1.77,0.885,3.857,0.885,5.69,0l19.411-9.8c1.771-0.885,3.92-0.885,5.691,0l19.411,9.8c1.77,0.885,3.92,0.885,5.69,0
	l19.411-9.8c1.771-0.885,3.92-0.885,5.691,0l19.411,9.8c1.834,0.885,3.92,0.885,5.69,0l4.237-2.15
	C242.408,27.263,248.226,33.27,245.254,38.708z"/>
<path style="fill:#44C4A1;" d="M242.977,42.944l-34.713,63.861H100.649L65.936,42.944c1.707-1.075,3.92-1.328,6.133-0.253
	l4.173,2.15c1.834,0.885,3.92,0.885,5.691,0l19.474-9.8c1.771-0.885,3.857-0.885,5.691,0l19.411,9.8c1.77,0.885,3.857,0.885,5.69,0
	l19.411-9.8c1.771-0.885,3.92-0.885,5.691,0l19.411,9.8c1.77,0.885,3.92,0.885,5.69,0l19.411-9.8c1.771-0.885,3.92-0.885,5.691,0
	l19.411,9.8c1.834,0.885,3.92,0.885,5.69,0l4.237-2.15C239.057,41.616,241.27,41.869,242.977,42.944z"/>
<path style="fill:#3EA69B;" d="M281.674,119.451L281.674,119.451c0,6.984-5.662,12.646-12.646,12.646H86.359
	c9.168-15.744,15.238-25.292,15.238-25.292h167.431C276.012,106.806,281.674,112.467,281.674,119.451z"/>
<circle style="fill:#D5D6DB;" cx="154.474" cy="301.081" r="94.845"/>
<circle style="fill:#EBF0F3;" cx="154.474" cy="301.081" r="80.933"/>
<path style="fill:#D5D6DB;" d="M154.495,371.894c-4.676,0-9.29-0.448-13.776-1.331l1.051-5.344
	c4.148,0.815,8.415,1.229,12.682,1.229l0.065,4.923l-0.001,0.523C154.508,371.894,154.501,371.894,154.495,371.894z
	 M168.332,370.536l-1.064-5.344c4.192-0.834,8.313-2.087,12.251-3.723l2.091,5.03C177.342,368.274,172.873,369.632,168.332,370.536z
	 M127.432,366.557c-4.274-1.766-8.393-3.965-12.242-6.535l3.024-4.53c3.554,2.371,7.355,4.401,11.298,6.03L127.432,366.557z
	 M193.838,359.94l-3.032-4.524c3.543-2.375,6.872-5.112,9.893-8.138l3.854,3.849C201.282,354.404,197.677,357.368,193.838,359.94z
	 M104.456,351.232c-3.276-3.265-6.244-6.867-8.824-10.703l4.522-3.04c2.382,3.544,5.124,6.87,8.149,9.887L104.456,351.232z
	 M213.355,340.404l-4.527-3.03c2.377-3.554,4.41-7.353,6.042-11.293l5.032,2.085C218.134,332.435,215.931,336.552,213.355,340.404z
	 M89.059,328.305c-1.781-4.272-3.143-8.739-4.048-13.275l5.341-1.067c0.837,4.185,2.092,8.305,3.734,12.246L89.059,328.305z
	 M223.923,314.885l-5.344-1.056c0.825-4.173,1.242-8.464,1.242-12.75v-0.286h5.447v0.286
	C225.269,305.719,224.817,310.364,223.923,314.885z M83.636,301.222v-0.144c0-4.595,0.443-9.191,1.317-13.66l5.346,1.045
	c-0.806,4.125-1.216,8.369-1.216,12.614L83.636,301.222z M218.526,288.059c-0.846-4.183-2.111-8.299-3.762-12.237l5.025-2.107
	c1.79,4.268,3.161,8.731,4.076,13.266L218.526,288.059z M93.983,276.202l-5.038-2.075c1.76-4.274,3.954-8.396,6.521-12.25
	l4.535,3.019C97.631,268.454,95.606,272.258,93.983,276.202z M208.675,264.553c-2.387-3.535-5.135-6.854-8.17-9.868l3.838-3.865
	c3.285,3.261,6.261,6.857,8.845,10.685L208.675,264.553z M108.108,254.976l-3.862-3.841c3.264-3.281,6.862-6.253,10.697-8.836
	l3.043,4.519C114.445,249.202,111.121,251.947,108.108,254.976z M190.576,246.588c-3.563-2.367-7.369-4.387-11.312-6.006l2.069-5.04
	c4.273,1.756,8.397,3.945,12.257,6.509L190.576,246.588z M129.258,240.741l-2.101-5.027c4.268-1.783,8.732-3.149,13.269-4.062
	l1.075,5.341C137.313,237.833,133.195,239.094,129.258,240.741z M166.999,236.912c-4.107-0.798-8.328-1.202-12.547-1.202
	l-0.15-3.798l0.1-1.649c4.515,0.02,9.189,0.438,13.637,1.303L166.999,236.912z"/>
<path style="fill:#64798A;" d="M171.109,301.078c5.704-4.341,9.046-10.999,9.046-18.237c0-12.671-10.309-22.979-22.979-22.979
	h-2.583v-9.484h-4.742v9.484h-5.533v-9.484h-4.742v9.484h-4.742h-6.084v9.484h6.084v26.99h-6.084v9.484h6.084v26.99h-6.084v9.484
	h6.084h4.742v9.484h4.742v-9.484h5.533v9.484h4.742v-9.484h2.583c12.671,0,22.979-10.309,22.979-22.979
	C180.155,312.077,176.813,305.419,171.109,301.078z M157.176,332.81h-12.858v-26.99h12.858c7.441,0,13.495,6.054,13.495,13.495
	C170.671,326.756,164.617,332.81,157.176,332.81z M157.176,296.336h-12.858v-26.99h12.858c7.441,0,13.495,6.054,13.495,13.495
	C170.671,290.281,164.617,296.336,157.176,296.336z"/>
<ellipse style="fill:#FCD462;" cx="353.342" cy="405.167" rx="88.813" ry="19.106"/>
<path style="fill:#F6C358;" d="M353.358,424.271c-49.05,0-88.813-8.555-88.813-19.107v22.291c0,10.553,39.763,19.107,88.813,19.107
	s88.813-8.554,88.813-19.107v-22.291C442.171,415.716,402.408,424.271,353.358,424.271z"/>
<g>
	<path style="fill:#DC8744;" d="M280.119,416.057v22.258c-1.874-0.562-3.608-1.218-5.202-1.827V414.23
		C276.511,414.839,278.245,415.495,280.119,416.057z"/>
	<path style="fill:#DC8744;" d="M301.767,420.79v22.304c-1.78-0.281-3.467-0.562-5.154-0.89v-22.258
		C298.3,420.228,299.987,420.509,301.767,420.79z"/>
	<path style="fill:#DC8744;" d="M323.463,423.227v22.304c-1.781-0.141-3.514-0.281-5.202-0.422v-22.304
		C319.948,422.945,321.682,423.086,323.463,423.227z"/>
	<path style="fill:#DC8744;" d="M345.111,424.257v22.304c-1.733,0-3.467-0.047-5.154-0.14v-22.304
		C341.643,424.211,343.377,424.257,345.111,424.257z"/>
	<path style="fill:#DC8744;" d="M366.806,424.117v22.304c-1.734,0.094-3.467,0.14-5.202,0.14v-22.304
		C363.339,424.257,365.072,424.211,366.806,424.117z"/>
	<path style="fill:#DC8744;" d="M388.454,422.805v22.304c-1.686,0.141-3.374,0.281-5.154,0.422v-22.304
		C385.081,423.086,386.768,422.945,388.454,422.805z"/>
	<path style="fill:#DC8744;" d="M410.15,419.946v22.258c-1.64,0.328-3.374,0.609-5.202,0.89V420.79
		C406.776,420.509,408.51,420.228,410.15,419.946z"/>
	<path style="fill:#DC8744;" d="M431.798,414.23v22.258c-1.546,0.656-3.28,1.265-5.154,1.827v-22.258
		C428.518,415.495,430.252,414.886,431.798,414.23z"/>
</g>
<ellipse style="fill:#FCD462;" cx="379.442" cy="368.578" rx="88.813" ry="19.106"/>
<path style="fill:#F6C358;" d="M468.293,368.586v22.304c0,3.233-3.748,6.279-10.403,8.95c-1.546,0.656-3.28,1.265-5.154,1.827
	c-4.639,1.499-10.215,2.812-16.494,3.889c-1.641,0.328-3.374,0.609-5.202,0.89c-5.107,0.797-10.637,1.453-16.494,2.015
	c-1.686,0.141-3.374,0.281-5.154,0.422c-5.296,0.422-10.778,0.703-16.494,0.89c-1.734,0.094-3.467,0.14-5.202,0.14
	c-2.718,0.047-5.482,0.094-8.247,0.094c-2.764,0-5.529-0.047-8.247-0.094c-1.733,0-3.467-0.047-5.154-0.14
	c-5.67-0.188-11.2-0.469-16.494-0.89c-1.781-0.141-3.514-0.281-5.202-0.422c-5.857-0.562-11.386-1.218-16.494-2.015
	c-1.78-0.281-3.467-0.562-5.154-0.89c-6.279-1.078-11.855-2.39-16.494-3.889c-1.874-0.562-3.608-1.218-5.202-1.827
	c-6.607-2.671-10.355-5.717-10.355-8.95v-22.304c0,3.233,3.749,6.326,10.355,8.997c1.594,0.609,3.327,1.265,5.202,1.827
	c4.639,1.453,10.215,2.765,16.494,3.889c1.686,0.281,3.374,0.562,5.154,0.843c5.108,0.797,10.637,1.453,16.494,2.015
	c1.687,0.141,3.421,0.281,5.202,0.422c5.294,0.422,10.824,0.703,16.494,0.89c1.686,0.094,3.421,0.14,5.154,0.14
	c2.718,0.047,5.483,0.094,8.247,0.094c2.765,0,5.529-0.047,8.247-0.094c1.734,0,3.467-0.047,5.202-0.14
	c5.717-0.187,11.199-0.469,16.494-0.89c1.78-0.141,3.467-0.281,5.154-0.422c5.857-0.562,11.387-1.218,16.494-2.015
	c1.828-0.281,3.561-0.562,5.202-0.843c6.279-1.125,11.855-2.437,16.494-3.889c1.874-0.562,3.608-1.171,5.154-1.827
	C464.544,374.912,468.293,371.866,468.293,368.586z"/>
<g>
	<path style="fill:#DC8744;" d="M306.211,379.41v22.258c-1.874-0.562-3.608-1.218-5.202-1.827v-22.258
		C302.603,378.192,304.337,378.848,306.211,379.41z"/>
	<path style="fill:#DC8744;" d="M327.859,384.143v22.304c-1.78-0.281-3.467-0.562-5.154-0.89v-22.258
		C324.391,383.58,326.079,383.862,327.859,384.143z"/>
	<path style="fill:#DC8744;" d="M349.555,386.579v22.304c-1.781-0.141-3.514-0.281-5.202-0.422v-22.304
		C346.04,386.298,347.774,386.439,349.555,386.579z"/>
	<path style="fill:#DC8744;" d="M371.203,387.61v22.304c-1.733,0-3.467-0.047-5.154-0.14V387.47
		C367.735,387.564,369.469,387.61,371.203,387.61z"/>
	<path style="fill:#DC8744;" d="M392.898,387.47v22.304c-1.734,0.094-3.467,0.14-5.202,0.14V387.61
		C389.431,387.61,391.164,387.564,392.898,387.47z"/>
	<path style="fill:#DC8744;" d="M414.546,386.158v22.304c-1.686,0.141-3.374,0.281-5.154,0.422v-22.304
		C411.172,386.439,412.86,386.298,414.546,386.158z"/>
	<path style="fill:#DC8744;" d="M436.242,383.299v22.258c-1.641,0.328-3.374,0.609-5.202,0.89v-22.304
		C432.868,383.862,434.602,383.58,436.242,383.299z"/>
	<path style="fill:#DC8744;" d="M457.89,377.583v22.258c-1.546,0.656-3.28,1.265-5.154,1.827V379.41
		C454.61,378.848,456.344,378.239,457.89,377.583z"/>
</g>
<ellipse style="fill:#FCD462;" cx="353.342" cy="332.051" rx="88.813" ry="19.106"/>
<path style="fill:#F6C358;" d="M353.358,351.155c-49.05,0-88.813-8.555-88.813-19.107v22.291c0,10.553,39.763,19.107,88.813,19.107
	s88.813-8.554,88.813-19.107v-22.291C442.171,342.6,402.408,351.155,353.358,351.155z"/>
<g>
	<path style="fill:#DC8744;" d="M280.119,342.941v22.258c-1.874-0.562-3.608-1.218-5.202-1.827v-22.258
		C276.511,341.723,278.245,342.379,280.119,342.941z"/>
	<path style="fill:#DC8744;" d="M301.767,347.674v22.304c-1.78-0.281-3.467-0.562-5.154-0.89V346.83
		C298.3,347.112,299.987,347.393,301.767,347.674z"/>
	<path style="fill:#DC8744;" d="M323.463,350.111v22.304c-1.781-0.141-3.514-0.281-5.202-0.422v-22.304
		C319.948,349.829,321.682,349.97,323.463,350.111z"/>
	<path style="fill:#DC8744;" d="M345.111,351.141v22.304c-1.733,0-3.467-0.047-5.154-0.14v-22.304
		C341.643,351.095,343.377,351.141,345.111,351.141z"/>
	<path style="fill:#DC8744;" d="M366.806,351.001v22.304c-1.734,0.094-3.467,0.14-5.202,0.14v-22.304
		C363.339,351.141,365.072,351.095,366.806,351.001z"/>
	<path style="fill:#DC8744;" d="M388.454,349.689v22.304c-1.686,0.141-3.374,0.281-5.154,0.422v-22.304
		C385.081,349.97,386.768,349.829,388.454,349.689z"/>
	<path style="fill:#DC8744;" d="M410.15,346.83v22.258c-1.64,0.328-3.374,0.609-5.202,0.89v-22.304
		C406.776,347.393,408.51,347.112,410.15,346.83z"/>
	<path style="fill:#DC8744;" d="M431.798,341.114v22.258c-1.546,0.656-3.28,1.265-5.154,1.827v-22.258
		C428.518,342.379,430.252,341.77,431.798,341.114z"/>
</g>
<ellipse style="fill:#FCD462;" cx="379.442" cy="295.486" rx="88.813" ry="19.106"/>
<g>
	<ellipse style="fill:#F6C358;" cx="379.442" cy="295.486" rx="75.851" ry="11.239"/>
	<path style="fill:#F6C358;" d="M468.293,295.47v22.304c0,3.233-3.748,6.279-10.403,8.95c-1.546,0.656-3.28,1.265-5.154,1.827
		c-4.639,1.499-10.215,2.812-16.494,3.889c-1.641,0.328-3.374,0.609-5.202,0.89c-5.107,0.796-10.637,1.453-16.494,2.015
		c-1.686,0.141-3.374,0.281-5.154,0.422c-5.296,0.422-10.778,0.703-16.494,0.89c-1.734,0.094-3.467,0.14-5.202,0.14
		c-2.718,0.047-5.482,0.094-8.247,0.094c-2.764,0-5.529-0.047-8.247-0.094c-1.733,0-3.467-0.047-5.154-0.14
		c-5.67-0.188-11.2-0.469-16.494-0.89c-1.781-0.141-3.514-0.281-5.202-0.422c-5.857-0.562-11.386-1.218-16.494-2.015
		c-1.78-0.281-3.467-0.562-5.154-0.89c-6.279-1.078-11.855-2.39-16.494-3.889c-1.874-0.562-3.608-1.218-5.202-1.827
		c-6.607-2.671-10.355-5.717-10.355-8.95V295.47c0,3.233,3.749,6.326,10.355,8.997c1.594,0.609,3.327,1.265,5.202,1.827
		c4.639,1.453,10.215,2.765,16.494,3.889c1.686,0.281,3.374,0.562,5.154,0.843c5.108,0.797,10.637,1.453,16.494,2.015
		c1.687,0.141,3.421,0.281,5.202,0.422c5.294,0.422,10.824,0.703,16.494,0.89c1.686,0.094,3.421,0.14,5.154,0.14
		c2.718,0.047,5.483,0.094,8.247,0.094c2.765,0,5.529-0.047,8.247-0.094c1.734,0,3.467-0.047,5.202-0.14
		c5.717-0.187,11.199-0.469,16.494-0.89c1.78-0.141,3.467-0.281,5.154-0.422c5.857-0.562,11.387-1.218,16.494-2.015
		c1.828-0.281,3.561-0.562,5.202-0.843c6.279-1.125,11.855-2.437,16.494-3.889c1.874-0.562,3.608-1.171,5.154-1.827
		C464.544,301.796,468.293,298.75,468.293,295.47z"/>
</g>
<g>
	<path style="fill:#DC8744;" d="M306.211,306.294v22.258c-1.874-0.562-3.608-1.218-5.202-1.827v-22.258
		C302.603,305.076,304.337,305.732,306.211,306.294z"/>
	<path style="fill:#DC8744;" d="M327.859,311.027v22.304c-1.78-0.281-3.467-0.562-5.154-0.89v-22.258
		C324.391,310.464,326.079,310.746,327.859,311.027z"/>
	<path style="fill:#DC8744;" d="M349.555,313.463v22.304c-1.781-0.141-3.514-0.281-5.202-0.422v-22.304
		C346.04,313.182,347.774,313.323,349.555,313.463z"/>
	<path style="fill:#DC8744;" d="M371.203,314.494v22.304c-1.733,0-3.467-0.047-5.154-0.14v-22.304
		C367.735,314.448,369.469,314.494,371.203,314.494z"/>
	<path style="fill:#DC8744;" d="M392.898,314.354v22.304c-1.734,0.094-3.467,0.14-5.202,0.14v-22.304
		C389.431,314.494,391.164,314.448,392.898,314.354z"/>
	<path style="fill:#DC8744;" d="M414.546,313.042v22.304c-1.686,0.141-3.374,0.281-5.154,0.422v-22.304
		C411.172,313.323,412.86,313.182,414.546,313.042z"/>
	<path style="fill:#DC8744;" d="M436.242,310.183v22.258c-1.641,0.328-3.374,0.609-5.202,0.89v-22.304
		C432.868,310.746,434.602,310.464,436.242,310.183z"/>
	<path style="fill:#DC8744;" d="M457.89,304.467v22.258c-1.546,0.656-3.28,1.265-5.154,1.827v-22.258
		C454.61,305.732,456.344,305.123,457.89,304.467z"/>
</g>
<g>
</g>
<g>
</g>
<g>
</g>
<g>
</g>
<g>
</g>
<g>
</g>
<g>
</g>
<g>
</g>
<g>
</g>
<g>
</g>
<g>
</g>
<g>
</g>
<g>
</g>
<g>
</g>
<g>
</g>
</svg>
